<?xml version="1.0" standalone="no"?>
<!DOCTYPE svg PUBLIC "-//W3C//DTD SVG 1.1//EN" "http://www.w3.org/Graphics/SVG/1.1/DTD/svg11.dtd" >
<svg xmlns="http://www.w3.org/2000/svg" xmlns:xlink="http://www.w3.org/1999/xlink" version="1.1">
    <metadata>
        Created by FontForge 20170731 at Wed Jun 5 20:12:09 2002
        By Aleksey,,,
        Copyright (c) 1985, 1987, 1990, 2002 Adobe Systems Incorporated. All Rights Reserved.
    </metadata>
    <defs>
        <font id="MeliorLTStd" horiz-adv-x="333">
            <font-face
                    font-family="Melior LT Std"
                    font-weight="400"
                    font-stretch="normal"
                    units-per-em="1000"
                    panose-1="2 4 5 3 5 5 6 4 8 4"
                    ascent="745"
                    descent="-255"
                    x-height="465"
                    cap-height="692"
                    bbox="-135 -252 1000 927"
                    underline-thickness="50"
                    underline-position="-225"
                    unicode-range="U+0020-FB02"
            />
            <missing-glyph horiz-adv-x="500"
                           d="M0 0v700h500v-700h-500zM250 395l170 255h-340zM280 350l170 -255v510zM80 50h340l-170 255zM50 605v-510l170 255z"/>
            <glyph glyph-name="fi" unicode="fi" horiz-adv-x="611"
                   d="M406 99v267q0 45 -11.5 53t-66.5 8h-17h-121v-328q0 -46 15 -57.5t81 -11.5v-32q-24 0 -69 0.5t-68 1.5q-22 0 -65 -0.5t-65 -1.5v32q61 0 76.5 14t12.5 55v328h-86v38h86v123q0 72 37.5 114.5t109.5 42.5q50 0 79 -19t35 -66v-6v-6v-6.5t-1 -6.5t-2.5 -5.5t-4 -3.5
t-6 -2t-8.5 0h-36q-6 -1 -10 0.5t-6 3t-3 6.5t-1 7.5v8.5v7q1 6 -0.5 17.5t-12 25.5t-30.5 14q-34 0 -46 -18t-12 -81v-150h298v-366q0 -45 14 -57t75 -12v-32q-22 1 -65 1.5t-65 0.5t-65 -0.5t-65 -1.5v32q60 0 75.5 13.5t13.5 55.5zM443 559q-26 0 -41 18.5t-15 47.5
q0 28 15 46.5t41 18.5t41 -18.5t15 -46.5q0 -29 -15 -47.5t-41 -18.5z"/>
            <glyph glyph-name="fl" unicode="fl" horiz-adv-x="611"
                   d="M351 624h-36q-7 0 -11 2t-5.5 6.5t-2 7.5t-0.5 10l1 6v14q0 24 -16 34.5t-31 10.5q-26 0 -39.5 -20t-15 -37t-1.5 -43v-150h121v-38h-121v-328q0 -46 15 -57.5t81 -11.5v-32q-24 0 -69 0.5t-68 1.5q-22 0 -65 -0.5t-65 -1.5v32q60 3 75.5 16.5t13.5 52.5v328h-86v38h86
v123q0 69 39 113t108 44q35 0 61 -12l176 12v-646q0 -45 14 -57t75 -12v-32q-22 1 -65 1.5t-65 0.5t-65 -0.5t-65 -1.5v32q57 1 74 15t15 54v544q0 41 -10.5 53.5t-50.5 14.5q16 -19 20 -51v-6v-6v-6.5t-1 -6.5t-2.5 -5.5t-4 -3.5t-6 -2t-8.5 0z"/>
            <glyph glyph-name=".notdef" horiz-adv-x="500"
                   d="M0 0v700h500v-700h-500zM250 395l170 255h-340zM280 350l170 -255v510zM80 50h340l-170 255zM50 605v-510l170 255z"/>
            <glyph glyph-name=".null" horiz-adv-x="0"
            />
            <glyph glyph-name="nonmarkingreturn"
            />
            <glyph glyph-name="space" unicode=" " horiz-adv-x="278"
            />
            <glyph glyph-name="exclam" unicode="!"
                   d="M221 618l-32 -362q-2 -38 -22 -66q-20 28 -22 66l-32 362q-7 87 54 87t54 -87zM167 -10q-26 0 -41 18.5t-15 47.5q0 28 15 46.5t41 18.5t41 -18.5t15 -46.5q0 -29 -15 -47.5t-41 -18.5z"/>
            <glyph glyph-name="quotedbl" unicode="&#x22;" horiz-adv-x="371"
                   d="M105 454h-20l-33 196q-3 16 11 30t32 14t32 -14t11 -30zM286 454h-20l-33 196q-3 16 11 30t32 14t32 -14t11 -30z"/>
            <glyph glyph-name="numbersign" unicode="#" horiz-adv-x="556"
                   d="M499 260v-53h-109l-31 -207h-58l31 207h-134l-33 -207h-58l33 207h-107v53h116l21 128h-110v53h118l31 194h58l-31 -194h133l30 194h58l-30 -194h97v-53h-105l-20 -128h100zM361 388h-133l-21 -128h134z"/>
            <glyph glyph-name="dollar" unicode="$" horiz-adv-x="556"
                   d="M309 705v-47q87 -3 172 -35v-153h-52q-1 7 -2.5 28.5t-3 34.5t-9 32t-19 30t-33.5 19t-53 8v-248l31 -11q81 -29 124 -67.5t43 -112.5q0 -91 -51.5 -133.5t-146.5 -56.5v-98h-35v95h-23q-114 0 -202 40v170h62q1 -8 2 -35.5t3 -43t11.5 -39t25.5 -35.5t47 -20t74 -4v273
q-99 34 -133 57q-66 45 -66 127q0 85 56.5 130t142.5 48v47h35zM274 386v236q-53 -4 -85.5 -32t-32.5 -82q0 -74 76 -107zM309 284v-257q50 6 82 40.5t32 85.5q0 92 -114 131z"/>
            <glyph glyph-name="percent" unicode="%" horiz-adv-x="1000"
                   d="M711 -10q-79 0 -124.5 46t-45.5 133t45.5 133t124.5 46t124.5 -46t45.5 -133t-45.5 -133t-124.5 -46zM711 17q92 0 92 152t-92 152t-92 -152t92 -152zM252 332q-79 0 -124.5 46t-45.5 133t45.5 133t124.5 46t124.5 -46t45.5 -133t-45.5 -133t-124.5 -46zM252 359
q92 0 92 152t-92 152t-92 -152t92 -152zM308 -72h-49l390 817h49z"/>
            <glyph glyph-name="ampersand" unicode="&#x26;" horiz-adv-x="667"
                   d="M183 523q0 -76 67 -155q48 34 68.5 63t20.5 80q0 39 -20 65.5t-58 26.5q-36 0 -57 -22t-21 -58zM475 -2l-73 82q-44 -48 -91 -69t-111 -21q-62 0 -112.5 43t-44.5 113q5 53 47 102t95 79q-74 91 -74 160t42.5 108.5t111.5 39.5q60 0 99.5 -30t39.5 -88q0 -16 -3.5 -31.5
t-7.5 -27t-14 -24.5t-16 -20.5t-21 -19.5t-21 -17t-24.5 -18t-23.5 -17l151 -166q18 29 25 41.5t15.5 32.5t14.5 44q4 17 -16 23t-68 9v29q20 -1 60 -1t60 -1q20 1 59.5 1t59.5 1v-29q-10 -1 -25.5 -3t-21 -3t-15 -3.5t-13.5 -5.5t-11 -8.5t-12 -13t-12 -19.5l-75 -124
l82 -86q32 -24 103 -26v-2v-34q-13 0 -39.5 1t-39.5 1t-40 -1t-40 -1zM378 106l-172 196q-80 -54 -80 -142q0 -52 35 -89t86 -37q71 0 122 61z"/>
            <glyph glyph-name="quotesingle" unicode="'" horiz-adv-x="208"
                   d="M114 454h-20l-33 196q-3 16 11 30t32 14t32 -14t11 -30z"/>
            <glyph glyph-name="parenleft" unicode="("
                   d="M292 -126v-28q-35 3 -64 14t-49.5 28t-37 39.5t-27 49t-18 55.5t-10.5 59.5t-5.5 61.5t-1.5 61t0 58v27v29v58.5t1.5 59t5 61.5t11 57.5t18 55.5t26.5 46t37 39.5t50 25.5t64 14v-28q-28 -11 -50 -29.5t-35.5 -41.5t-23.5 -51t-14.5 -58.5t-7 -64t-2.5 -67.5v-69v-40
v-41.5v-48.5t1 -48t3.5 -52.5t7 -48.5t11.5 -49t17 -42t23 -40t31 -29.5t39 -22.5z"/>
            <glyph glyph-name="parenright" unicode=")"
                   d="M44 717v28q35 -3 64 -13.5t49.5 -26.5t37.5 -38t27 -47.5t17.5 -54.5t10.5 -59t5.5 -60.5t2 -60t-0.5 -57.5v-7.5v-7v-8v-6.5v-27q1 -25 0 -52t-1.5 -54.5t-3.5 -55.5t-7.5 -54.5t-13 -52t-19.5 -47.5t-27 -41t-36 -33.5t-46.5 -23.5t-58.5 -12v28q21 8 39 22.5t31 29.5
t23 40t17 42t11.5 49t7 48.5t3.5 52.5t1 48v48.5v41.5q0 165 -5 213q-18 155 -115 202q-6 3 -13 6z"/>
            <glyph glyph-name="asterisk" unicode="*" horiz-adv-x="556"
                   d="M421 612l35 -65l-154 -39l118 -107l-60 -49l-83 138l-83 -138l-60 49l118 107l-154 39l35 65l127 -76l-22 154h78l-22 -154z"/>
            <glyph glyph-name="plus" unicode="+" horiz-adv-x="606"
                   d="M271 285v219h64v-219h220v-64h-220v-222h-64v222h-220v64h220z"/>
            <glyph glyph-name="comma" unicode="," horiz-adv-x="278"
                   d="M95 -134l-16 27q33 12 60 43.5t25 63.5q-29 -5 -49.5 10.5t-20.5 45.5q0 31 17 48.5t43 17.5q27 0 43 -27t16 -54q0 -62 -29.5 -102.5t-88.5 -72.5z"/>
            <glyph glyph-name="hyphen" unicode="-"
                   d="M289 211h-245v74h245v-74z"/>
            <glyph glyph-name="period" unicode="." horiz-adv-x="278"
                   d="M134 -10q-26 0 -41 18.5t-15 47.5t15 47.5t41 18.5t41 -18.5t15 -47.5t-15 -47.5t-41 -18.5z"/>
            <glyph glyph-name="slash" unicode="/" horiz-adv-x="389"
                   d="M38 -10l252 755h62l-253 -755h-61z"/>
            <glyph glyph-name="zero" unicode="0" horiz-adv-x="556"
                   d="M53 313q0 60 3.5 100.5t16.5 86t36.5 72.5t65.5 45t102 18q50 0 88 -11t62 -34t39.5 -50t23 -67t10 -75t2.5 -85q0 -49 -2.5 -84t-10 -75.5t-23 -67.5t-39.5 -50t-62 -34.5t-88 -11.5q-60 0 -102 18t-65.5 45.5t-36.5 73t-16.5 86.5t-3.5 100zM153 313q0 -117 6 -157
q22 -133 118 -133q31 0 54 13t35.5 34.5t21.5 49.5t10.5 58t3.5 59t0 54v22v22q0 35 -0.5 55t-3 57t-10.5 60t-21.5 47.5t-36 36.5t-53.5 12q-30 0 -53 -13t-35.5 -35t-21.5 -50t-11 -57.5t-3.5 -59t0.5 -53.5v-8v-7v-7z"/>
            <glyph glyph-name="one" unicode="1" horiz-adv-x="556"
                   d="M266 625h81v-525q0 -16 0.5 -23.5t2.5 -17t7.5 -12.5t12 -7.5t21 -5.5t30.5 -1.5t43 -0.5v-34q-29 0 -82.5 0.5t-79.5 1.5q-26 -1 -83 -1.5t-87 -0.5v34q34 0 52 0.5t34.5 3.5t22.5 6t10.5 12.5t5 18t0.5 27.5v466q-90 -71 -133 -92q-22 -11 -43 -16v55q90 28 185 112z
"/>
            <glyph glyph-name="two" unicode="2" horiz-adv-x="556"
                   d="M236 181l-109 -103h225q15 0 26.5 1t19.5 3t14 7.5t9 9t5.5 13.5t3.5 16t3 21t3 23h35v-172h-404v74l94 94q2 2 24.5 25t28 28.5t26 28t28 32t25 31.5t24.5 35t19 33.5t17 36t9 34.5t4 37q0 50 -25.5 81.5t-74.5 31.5q-23 0 -41 -6t-27.5 -12t-17 -21.5t-10 -22t-6 -26.5
t-4.5 -23v-16t-5.5 -20.5t-20.5 -6.5h-35q-21 -1 -18 58q5 69 59.5 99t129.5 30q52 0 93 -12.5t70.5 -47t29.5 -87.5q0 -28 -12.5 -60t-28.5 -56.5t-45.5 -56.5t-47.5 -49t-51.5 -47.5t-41.5 -37.5z"/>
            <glyph glyph-name="three" unicode="3" horiz-adv-x="556"
                   d="M193 310v44q28 -4 43 -4q72 5 98 31t26 99q0 55 -20.5 86t-72.5 35q-97 9 -104 -101l-3 -16q2 -11 -5 -17t-19 -3h-30q-26 0 -22 22q0 149 185 149q81 0 133 -38.5t52 -116.5q0 -53 -28.5 -90t-79.5 -51v-2q61 -12 93 -55.5t32 -106.5q0 -103 -60.5 -144t-167.5 -41
q-85 0 -128 39t-45 101q0 13 1 20t8 14t21 7h24q11 0 17.5 -2t9 -8.5t3 -12.5t0.5 -18q1 -2 2 -19.5t5 -29.5t12.5 -27t28 -23.5t48.5 -8.5q69 0 96.5 41t27.5 113t-26 105.5t-95 33.5q-27 0 -60 -5z"/>
            <glyph glyph-name="four" unicode="4" horiz-adv-x="556"
                   d="M313 247v322l-216 -322h216zM28 182v48q152 208 276 395h91v-378h103l-10 -65h-93v-82q0 -48 16 -59t87 -11v-32q-26 0 -73.5 0.5t-70.5 1.5q-24 -1 -76.5 -1.5t-79.5 -0.5v32q79 -1 98 10.5t17 59.5v82h-285z"/>
            <glyph glyph-name="five" unicode="5" horiz-adv-x="556"
                   d="M95 625h349q6 -3 1.5 -15.5t-12.5 -30t-8 -18.5l-14 -14h-266v-188q47 50 135 50q192 0 192 -212q0 -102 -55.5 -154.5t-156.5 -52.5q-94 0 -142 32t-52 105q0 13 1 20t8 14t21 7h24q11 0 17.5 -2t9 -8.5t3 -12.5t0.5 -18q1 -57 26.5 -81t83.5 -24q63 5 89.5 58.5
t24.5 116.5q0 168 -126 168q-76 0 -107 -72l-41 4q0 24 1 70.5t2 69.5q0 79 -8 188z"/>
            <glyph glyph-name="six" unicode="6" horiz-adv-x="556"
                   d="M428 485h-30q-11 2 -16 10t-2 18q-1 3 -4 16.5t-5 20t-8.5 18t-15.5 17t-24.5 10.5t-36.5 5q-27 0 -48.5 -9t-35 -21t-23 -34.5t-14.5 -40t-7 -47t-2.5 -45.5t-0.5 -46v-10q37 30 69 43t76 13q198 0 198 -199q0 -107 -60 -160.5t-168 -53.5q-44 0 -78.5 10.5t-57 26
t-38 44t-23.5 52t-12.5 64.5t-5 67.5t-0.5 72.5q0 55 5 96.5t19.5 83t39 68.5t66.5 43.5t100 16.5q167 0 173 -136q0 -7 -9 -11.5t-21 -2.5zM284 365q-73 0 -101.5 -40.5t-28.5 -116.5q0 -35 2 -59.5t10 -50t21.5 -41t38 -25.5t59.5 -10q115 0 115 176q0 167 -116 167z"/>
            <glyph glyph-name="seven" unicode="7" horiz-adv-x="556"
                   d="M497 625v-53q-79 -110 -144 -237t-153 -335h-98q31 59 62 115.5t51.5 93t55.5 93t48 76.5t55.5 86t52.5 82h-212h-13q-46 0 -58 -11q-18 -16 -18 -89h-33v179h404z"/>
            <glyph glyph-name="eight" unicode="8" horiz-adv-x="556"
                   d="M275 325h-3q-119 0 -119 -157q0 -145 119 -145q122 0 122 145q0 157 -119 157zM273 603q-99 0 -99 -116q-3 -57 22.5 -90.5t78.5 -32.5t78.5 34t22.5 89q0 116 -103 116zM275 -10q-101 0 -160 45.5t-59 142.5q0 138 136 169q-110 42 -110 143q0 73 56 109t137 36t137 -36
t56 -109q0 -101 -110 -143q136 -31 136 -169q0 -97 -59 -142.5t-160 -45.5z"/>
            <glyph glyph-name="nine" unicode="9" horiz-adv-x="556"
                   d="M500 301q-2 -65 -7 -108.5t-20 -85t-41 -65t-69.5 -38t-105.5 -14.5q-63 0 -111 31.5t-46 80.5q-1 17 6 27t18 10h28q18 -3 22 -18q3 -6 6.5 -26t8.5 -34t25.5 -26.5t55.5 -12.5q23 0 41 5t31 16t22.5 22t15.5 30t10 32.5t6 37.5t2.5 36.5t1 38.5t0.5 34l-3 2
q-34 -32 -69.5 -44.5t-85.5 -12.5q-90 0 -137 54t-47 145q0 107 60 162t168 55q43 0 77 -11t56.5 -26.5t38 -43.5t24 -52.5t12.5 -63.5t5 -66t1 -71zM155 424q0 -167 117 -167q41 0 68.5 13.5t40 40t17 54.5t4.5 69q0 78 -27 122t-98 44q-31 0 -53.5 -10.5t-35.5 -26.5
t-20.5 -40.5t-10 -47t-2.5 -51.5z"/>
            <glyph glyph-name="colon" unicode=":" horiz-adv-x="278"
                   d="M146 122q26 0 41 -18.5t15 -47.5t-15 -47.5t-41 -18.5t-41 18.5t-15 47.5t15 47.5t41 18.5zM146 465q26 0 41 -18.5t15 -47.5t-15 -47.5t-41 -18.5t-41 18.5t-15 47.5t15 47.5t41 18.5z"/>
            <glyph glyph-name="semicolon" unicode=";" horiz-adv-x="278"
                   d="M91 -134l-16 27q33 12 60 43.5t25 63.5q-29 -5 -49.5 10.5t-20.5 45.5q0 31 17 48.5t43 17.5q27 0 43 -27t16 -54q0 -62 -29.5 -102.5t-88.5 -72.5zM146 333q-26 0 -41 18.5t-15 47.5t15 47.5t41 18.5t41 -18.5t15 -47.5t-15 -47.5t-41 -18.5z"/>
            <glyph glyph-name="less" unicode="&#x3c;" horiz-adv-x="606"
                   d="M558 54v-62l-509 234v54l509 234v-62l-428 -199z"/>
            <glyph glyph-name="equal" unicode="=" horiz-adv-x="606"
                   d="M555 382v-63h-504v63h504zM555 187v-63h-504v63h504z"/>
            <glyph glyph-name="greater" unicode="&#x3e;" horiz-adv-x="606"
                   d="M48 54l428 199l-428 199v62l509 -234v-54l-509 -234v62z"/>
            <glyph glyph-name="question" unicode="?" horiz-adv-x="444"
                   d="M262 426l-30 -194q-5 -41 -21 -41q-17 0 -21 44l-20 212q74 -5 106.5 23t32.5 101q0 44 -22.5 74t-65.5 30q-55 -3 -74.5 -33.5t-22.5 -93.5q-1 -11 -29 -11q-37 0 -41 7q-3 4 -3 17q0 72 50.5 108t125.5 36q73 0 122.5 -35t49.5 -105q1 -56 -34 -94.5t-103 -44.5z
M211 -10q-26 0 -41 18.5t-15 47.5t15 47.5t41 18.5t41 -18.5t15 -47.5t-15 -47.5t-41 -18.5z"/>
            <glyph glyph-name="at" unicode="@" horiz-adv-x="747"
                   d="M314 176q41 0 74 48t47.5 102.5t14.5 92.5q0 27 -13 50.5t-40 23.5q-41 0 -75.5 -43.5t-51.5 -95.5t-17 -90q0 -35 14.5 -61.5t46.5 -26.5zM470 444l17 66h88l-77 -280q-16 -57 23 -57q49 0 102 73.5t53 171.5q0 97 -76 167t-196 70q-138 0 -229 -87t-91 -222
t93.5 -220.5t232.5 -85.5q78 0 143.5 37.5t109.5 103.5h61q-46 -87 -133 -139t-186 -52q-157 0 -266.5 99t-109.5 250q0 154 105.5 260t262.5 106q133 0 232.5 -79.5t99.5 -205.5q0 -109 -75.5 -192.5t-157.5 -83.5q-35 0 -54.5 24.5t-21.5 59.5q-22 -28 -35.5 -42
t-36.5 -25.5t-50 -11.5q-58 0 -96 41.5t-38 103.5q0 84 65.5 155t150.5 71q37 0 59.5 -20.5t28.5 -55.5h2z"/>
            <glyph glyph-name="A" unicode="A" horiz-adv-x="778"
                   d="M361 690h66l210 -549q23 -61 46 -83q29 -29 70 -26v-34q-23 0 -68.5 1t-68.5 1t-69 -1t-69 -1v36h9.5t20.5 2t26.5 5.5t21 12t9.5 19.5q0 14 -16 55l-65 167h-240l-62 -173q-9 -29 -9 -44q0 -16 7.5 -26t23 -13.5t24.5 -4t28 -0.5v-36q-20 0 -59 1t-59 1t-59 -1t-59 -1
v36q6 1 15.5 1.5t14 1t12 2.5t12 4.5t10.5 7.5t12 12q6 8 50 105zM471 333l-4 10l-100 257l-110 -267h214z"/>
            <glyph glyph-name="B" unicode="B" horiz-adv-x="667"
                   d="M216 344v-303l54 -3q94 0 144 14q76 19 76 143q0 86 -36 117.5t-122 31.5h-116zM216 649v-267h136q63 0 91.5 34t28.5 101q0 84 -32 110.5t-118 26.5q-18 0 -106 -5zM30 -2v34q30 0 47.5 2.5t28 5.5t14.5 13.5t5 18.5t1 28v490q0 20 -1 28t-5 18.5t-14.5 13.5t-28 5.5
t-47.5 2.5v34q24 0 71 -1t70 -1q15 0 88.5 1t86.5 1q44 0 73 -2.5t60.5 -12t50 -27.5t30.5 -49t12 -76q0 -72 -34.5 -109t-106.5 -49v-2q82 -9 121 -50t39 -122q0 -61 -18.5 -100.5t-67.5 -64.5q-47 -25 -183 -30q-25 0 -75.5 1t-75.5 1q-23 0 -70.5 -1t-70.5 -1z"/>
            <glyph glyph-name="C" unicode="C" horiz-adv-x="667"
                   d="M568 207h57v-177q-30 -16 -125.5 -28t-140.5 -12q-176 0 -250 89t-74 271t82.5 268.5t262.5 86.5q112 0 245 -39v-161h-54l-3 29q-10 81 -50.5 107.5t-137.5 26.5q-241 0 -241 -301q0 -60 5 -106t20.5 -92.5t42 -76.5t71.5 -49t107 -19q58 0 91.5 8t53 32t26.5 54t12 89z
"/>
            <glyph glyph-name="D" unicode="D" horiz-adv-x="722"
                   d="M203 646v-603q52 -4 101 -4q156 0 210.5 61.5t54.5 225.5q0 49 -1 78.5t-6 68.5t-14 62t-25.5 48.5t-41 39t-60.5 22.5t-83 9q-67 0 -135 -8zM17 -2v34q30 0 47.5 2.5t28 5.5t14.5 13.5t5 18.5t1 28v490q0 20 -1 28t-5 18.5t-14.5 13.5t-28 5.5t-47.5 2.5v34q23 0 70 -1
t71 -1q34 0 117.5 1t100.5 1q141 2 205 -52q91 -75 91 -282q0 -96 -13 -158.5t-47 -108t-93.5 -67.5t-151.5 -26q-35 0 -104.5 1t-104.5 1q-24 0 -70.5 -1t-70.5 -1z"/>
            <glyph glyph-name="E" unicode="E" horiz-adv-x="611"
                   d="M15 0v34q30 0 47.5 2.5t28 5.5t14.5 13.5t5 18.5t1 28v488q0 20 -1 28t-5 18.5t-14.5 13.5t-28 5.5t-47.5 2.5v34h543v-176h-53q-2 40 -3.5 55.5t-7 36t-12 26t-23 12.5t-35.5 7.5t-54 0.5h-169v-276h78q70 0 87.5 16t17.5 87h44v-240h-44q-2 15 -3.5 34.5t-2.5 27.5
t-6 18.5t-15.5 14t-29 6t-48.5 2.5h-78v-301h179q76 1 95 27t30 134h53v-204h-543z"/>
            <glyph glyph-name="F" unicode="F" horiz-adv-x="611"
                   d="M443 479v-240h-44q-2 15 -3.5 34.5t-2.5 27.5t-6 18.5t-15.5 14t-29 6t-48.5 2.5h-78v-242q0 -20 1 -28t5 -18.5t14.5 -13.5t28 -5.5t47.5 -2.5v-34q-24 0 -71 1t-70 1t-70.5 -1t-70.5 -1v34q30 0 47.5 2.5t28 5.5t14.5 13.5t5 18.5t1 28v488q0 20 -1 28t-5 18.5
t-14.5 13.5t-28 5.5t-47.5 2.5v34h543v-176h-53q-2 40 -3.5 55.5t-7 36t-12 26t-23 12.5t-35.5 7.5t-54 0.5h-169v-276h78q70 0 87.5 16t17.5 87h44z"/>
            <glyph glyph-name="G" unicode="G" horiz-adv-x="722"
                   d="M542 65v102q0 28 -1.5 38.5t-14.5 19.5t-34 10t-70 1v34q29 0 84.5 -0.5t81.5 -1.5q21 0 64 0.5t58 1.5v-33q-54 -3 -66 -15.5t-12 -54.5v-93q0 -27 4 -40q-135 -44 -274 -44q-175 0 -250 87t-75 266q0 181 82.5 269.5t267.5 92.5q111 0 245 -39v-161h-59q-8 103 -44 133
t-142 30q-73 2 -123.5 -24t-76 -75.5t-36 -104.5t-10.5 -125q0 -74 11 -127.5t37.5 -97.5t77 -66t124.5 -22q84 0 151 39z"/>
            <glyph glyph-name="H" unicode="H" horiz-adv-x="778"
                   d="M567 344h-357v-244q0 -47 17 -57.5t79 -10.5v-34q-24 0 -71 1t-70 1t-70.5 -1t-70.5 -1v34q62 0 79 10.5t17 57.5v490q0 47 -17 57.5t-79 10.5v34q23 0 70 -1t71 -1q23 0 70 1t71 1v-34q-60 0 -78 -10.5t-18 -57.5v-205h357v205q0 47 -18 57.5t-78 10.5v34q23 0 70 -1
t71 -1q23 0 70 1t71 1v-34q-62 0 -79 -10.5t-17 -57.5v-490q0 -47 17 -57.5t79 -10.5v-34q-23 0 -70 1t-71 1t-71 -1t-70 -1v34q62 0 79 10.5t17 57.5v244z"/>
            <glyph glyph-name="I" unicode="I"
                   d="M122 100v490q0 47 -17 57.5t-79 10.5v34q23 0 70 -1t71 -1q23 0 70 1t71 1v-34q-60 0 -78 -10.5t-18 -57.5v-490q0 -47 17 -57.5t79 -10.5v-34q-24 0 -71 1t-70 1t-70 -1t-71 -1v34q62 0 79 10.5t17 57.5z"/>
            <glyph glyph-name="J" unicode="J"
                   d="M221 590v-480q0 -281 -234 -312v21q33 10 58 26t40.5 39.5t25 46.5t13.5 56t5.5 58t1.5 63v482q0 47 -17 57.5t-79 10.5v34q23 0 70 -1t71 -1q23 0 70 1t71 1v-34q-60 0 -78 -10.5t-18 -57.5z"/>
            <glyph glyph-name="K" unicode="K" horiz-adv-x="722"
                   d="M218 590v-224q2 0 297 283q10 19 -11 23v20q15 0 45.5 -0.5t45.5 -1.5q15 0 45 1t45 1v-29q-62 -5 -89.5 -19t-79.5 -61l-209 -194q25 -26 87 -92t107 -113.5t89 -90.5q2 -2 10 -10.5t11.5 -12t11.5 -10.5t13 -10t14 -8t17 -6.5t19 -3t23 -0.5v-34q-14 0 -41.5 1t-41.5 1
t-41.5 -1t-41.5 -1l-12 16q-125 152 -313 329v-243q0 -47 17 -57.5t79 -10.5v-34q-24 0 -71 1t-70 1t-70 -1t-71 -1v34q62 0 79 10.5t17 57.5v490q0 47 -17 57.5t-79 10.5v34q23 0 70 -1t71 -1q23 0 70 1t71 1v-34q-60 0 -78 -10.5t-18 -57.5z"/>
            <glyph glyph-name="L" unicode="L" horiz-adv-x="611"
                   d="M32 0v32q30 0 47.5 2.5t28 5.5t14.5 13.5t5 18.5t1 28v490q0 20 -1 28t-5 18.5t-14.5 13.5t-28 5.5t-47.5 2.5v34q23 0 70 -1t71 -1q23 0 70 1t71 1v-34q-48 0 -67.5 -6.5t-24 -18t-4.5 -43.5v-549h177q76 1 95 27t30 135h53v-203h-541z"/>
            <glyph glyph-name="M" unicode="M" horiz-adv-x="944"
                   d="M734 100v480h-2l-271 -579q-4 -8 -11.5 -8.5t-11.5 7.5l-271 569h-2v-469q0 -46 17 -57t75 -11v-34q-19 0 -58 1t-59 1t-58.5 -1t-58.5 -1v34q58 0 75 11t17 57v490q0 46 -17.5 57t-74.5 11v34q15 0 44.5 -1t44.5 -1t44.5 1t44.5 1l272 -557l267 557q15 0 45 -1t45 -1
t45 1t45 1v-34q-60 0 -78 -10.5t-18 -57.5v-490q0 -47 17 -57.5t79 -10.5v-34q-24 0 -71 1t-70 1t-70 -1t-71 -1v34q62 0 79 10.5t17 57.5z"/>
            <glyph glyph-name="N" unicode="N" horiz-adv-x="778"
                   d="M113 100v490q0 46 -17.5 57t-74.5 11v34q15 0 43.5 -1t42.5 -1t42.5 1t42.5 1l428 -572v470q0 46 -17 57t-75 11v34q19 0 57 -1t57 -1t57 1t57 1v-34q-56 0 -71 -11t-15 -57v-590h-65l-442 584v-484q0 -46 17 -57t75 -11v-34q-19 0 -58 1t-59 1t-59 -1t-58 -1v34
q58 0 75 11t17 57z"/>
            <glyph glyph-name="O" unicode="O" horiz-adv-x="778"
                   d="M386 -10q-191 0 -266.5 82.5t-75.5 275.5t75 275t267 82t267 -82t75 -275q0 -98 -15 -162.5t-54 -110t-105 -65.5t-168 -20zM386 670q-58 0 -102 -18t-69.5 -46.5t-41.5 -72t-21.5 -87t-5.5 -98.5q0 -70 9.5 -122.5t34.5 -100.5t74.5 -74t121.5 -26t121.5 26t74.5 74
t34.5 100.5t9.5 122.5q0 55 -5.5 98.5t-21.5 87t-41.5 72t-69.5 46.5t-102 18z"/>
            <glyph glyph-name="P" unicode="P" horiz-adv-x="611"
                   d="M205 307v-207q0 -20 1 -28t5 -18.5t14.5 -13.5t28 -5.5t47.5 -2.5v-34q-23 0 -70.5 1t-70.5 1q-24 0 -71 -1t-70 -1v34q30 0 47.5 2.5t28 5.5t14.5 13.5t5 18.5t1 28v490q0 20 -1 28t-5 18.5t-14.5 13.5t-28 5.5t-47.5 2.5v34q23 0 70 -1t71 -1q34 0 103 1t104 1
q101 2 149.5 -36.5t48.5 -138.5q0 -68 -18 -111.5t-57 -64.5t-82 -27.5t-111 -6.5h-92zM205 656v-314h49q45 0 71 2t56.5 10t46 24.5t26.5 46.5t11 74q0 54 -8.5 85.5t-31 47.5t-48.5 20t-74 4h-98z"/>
            <glyph glyph-name="Q" unicode="Q" horiz-adv-x="778"
                   d="M626 374q-3 64 -14 112.5t-35 92.5t-69.5 67.5t-110.5 23.5q-133 5 -192.5 -77.5t-59.5 -220.5q0 -63 5 -109t21.5 -100t54.5 -88t96 -45q36 18 61 18q15 0 55 -18q43 5 75.5 22.5t52.5 46t32.5 58t18.5 71t7.5 72.5t1.5 74zM813 -129l13 -21l-114 -56q-62 24 -174.5 95
t-175.5 95q-19 7 -39 -1.5t-45 -30t-26 -22.5l-12 -12l-22 20q19 19 60 59q-66 8 -112 36t-72 73t-38 98.5t-13 121.5q0 105 16 174t56.5 116.5t107 68t168.5 20.5q82 0 138.5 -14t104 -51.5t71 -110t23.5 -181.5q1 -95 -19.5 -165.5t-56 -108.5t-75 -56t-84.5 -20v-2
q17 -8 77.5 -44.5t113.5 -64.5t74 -28q12 0 55 12z"/>
            <glyph glyph-name="R" unicode="R" horiz-adv-x="667"
                   d="M206 346v-246q0 -20 1 -28t5 -18.5t14.5 -13.5t28 -5.5t47.5 -2.5v-34q-24 0 -71 1t-70 1q-24 0 -70.5 -1t-70.5 -1v34q30 0 47.5 2.5t28 5.5t14.5 13.5t5 18.5t1 28v490q0 20 -1 28t-5 18.5t-14.5 13.5t-28 5.5t-47.5 2.5v34q24 0 71 -1t70 -1q8 0 85 1t104 1
q45 0 71.5 -2t57.5 -10.5t47.5 -24.5t28 -46t11.5 -73q0 -84 -45.5 -125t-131.5 -51q23 -38 89.5 -136.5t87.5 -126.5q20 -26 26.5 -33.5t26 -18.5t44.5 -13v-34q-12 0 -36 1t-36 1t-36.5 -1t-36.5 -1q-205 329 -239 341q-21 7 -73 7zM206 653v-273q11 -2 48 -2q41 0 65 1.5
t55.5 9t48.5 22t29.5 42t12.5 67.5q0 79 -33 107.5t-113 28.5q-17 0 -35.5 -0.5t-41.5 -1.5t-36 -1z"/>
            <glyph glyph-name="S" unicode="S" horiz-adv-x="611"
                   d="M258 430l115 -41q86 -31 132.5 -72.5t46.5 -120.5q0 -59 -22.5 -100.5t-63 -64t-86.5 -32t-102 -9.5q-120 0 -216 43v181h67q1 -14 2.5 -41t3 -40.5t6.5 -34t15 -31t27 -22t44 -16.5t64 -5q73 0 122 35t49 105q0 20 -5.5 38t-12 30.5t-22 25t-24 19.5t-32 17t-31 13
t-35 12t-32.5 11q-44 16 -69 27.5t-54 33t-42 51.5t-13 72q0 94 65.5 142.5t162.5 48.5q103 0 206 -38v-164h-56l-3 33t-3.5 33.5t-6.5 29.5t-14.5 28t-24 20.5t-38.5 15t-56 4.5q-65 0 -105 -30t-40 -93q0 -80 81 -114z"/>
            <glyph glyph-name="T" unicode="T" horiz-adv-x="667"
                   d="M632 690v-176h-50q-16 104 -37.5 121.5t-125.5 16.5h-42v-552q0 -47 18 -57.5t83 -10.5v-34q-25 0 -73.5 0.5t-72.5 1.5q-24 -1 -72.5 -1.5t-73.5 -0.5v34q65 0 83 10.5t18 57.5v552h-43q-102 1 -124.5 -17t-37.5 -121h-50v176h600z"/>
            <glyph glyph-name="U" unicode="U" horiz-adv-x="778"
                   d="M210 590v-365q-2 -101 44 -150t147 -49q112 0 164.5 50t52.5 164v350q0 34 -5 45.5t-26.5 17t-76.5 5.5v34q21 0 62.5 -1t61.5 -1q21 0 62.5 1t61.5 1v-34q-45 0 -64.5 -7.5t-22.5 -18.5t-3 -42v-349q0 -140 -73 -195.5t-225 -55.5q-250 0 -250 224v376q0 31 -3 42
t-22.5 18.5t-65.5 7.5v34q22 -1 67.5 -1.5t68.5 -0.5t70 1t71 1v-34q-30 0 -47.5 -2.5t-28 -5.5t-14.5 -13.5t-5 -18.5t-1 -28z"/>
            <glyph glyph-name="V" unicode="V" horiz-adv-x="722"
                   d="M396 0h-67l-217 580q-21 54 -37 67t-59 13v32q23 0 70 -1t70 -1q24 0 70.5 1t69.5 1v-32q-6 -1 -20 -2t-23 -2t-19.5 -4t-15.5 -9.5t-5 -16.5q-1 -15 9 -46l172 -480l168 480q7 27 4 43q-1 9 -6.5 16t-16 10.5t-18.5 5t-21 3t-16 2.5v32q18 0 54.5 -1t54.5 -1t54.5 1
t54.5 1v-32q-44 -10 -57.5 -23t-27.5 -57z"/>
            <glyph glyph-name="W" unicode="W" horiz-adv-x="1000"
                   d="M212 580l111 -478h2l157 588h95l148 -586h2l119 476q7 27 4 43q-1 9 -6.5 16t-16 10.5t-18.5 5t-21 3t-16 2.5v32q17 0 52 -1t52 -1q18 0 52.5 1t51.5 1v-32q-22 -1 -35 -4.5t-20 -12t-9 -16t-5 -22.5t-6 -25l-167 -580h-78l-158 610h-2l-165 -610h-78l-155 580
q-16 53 -31.5 66.5t-55.5 13.5v32q22 0 65.5 -1t64.5 -1q22 0 65 1t64 1v-32q-3 0 -13.5 -1.5t-14.5 -2t-12.5 -2t-12 -4t-8 -6.5t-6.5 -9.5t-2 -12.5q0 -17 7 -42z"/>
            <glyph glyph-name="X" unicode="X" horiz-adv-x="722"
                   d="M319 348l-139 200q-6 8 -20.5 29.5t-20 28.5t-18.5 21t-23.5 19t-27 9.5t-35.5 4.5v32q24 0 72.5 -1t72.5 -1t72 1t72 1v-32h-13t-16.5 -0.5t-18 -1.5t-17.5 -3.5t-14 -6.5t-8 -10.5t1 -15.5q7 -19 30 -49l107 -157l127 194q11 16 6 28q-9 22 -76 22v32q20 0 61 -1t62 -1
q20 0 61 1t62 1v-32q-14 -1 -25.5 -2.5t-22 -5.5t-17.5 -6.5t-16 -10t-13 -10.5t-13.5 -14.5t-12.5 -15t-14.5 -19t-15.5 -20.5l-129 -171l203 -288q19 -27 28 -37t26.5 -18t46.5 -10v-34q-23 0 -69 1t-69 1t-69 -1t-69 -1v34l8 1q8 1 15.5 2t18 3t18 5t12.5 7.5t5 10.5
q-1 22 -31 65l-133 187l-146 -225q-14 -19 -8 -31q7 -17 78 -25v-34q-20 0 -62 1t-62 1q-21 0 -62.5 -1t-62.5 -1v34q43 4 62 12.5t39 35.5z"/>
            <glyph glyph-name="Y" unicode="Y" horiz-adv-x="722"
                   d="M292 341l-95 151q-12 18 -31.5 49.5t-27.5 43t-22.5 29.5t-26 24.5t-29 13t-39.5 8.5v32q25 0 74.5 -1t73.5 -1q25 0 74 1t73 1v-32q-5 0 -17 -1t-17 -1.5t-14 -1.5t-13.5 -3t-10 -5.5t-8.5 -9t-4 -12.5q0 -6 -0.5 -8.5t2 -8t3.5 -7t4.5 -7t4.5 -6.5l151 -249l137 240
q19 28 18 46q0 34 -71 34v32q18 0 54 -1t54 -1t54 1t54 1v-32q-19 -2 -33.5 -7.5t-24.5 -11.5t-20.5 -19.5t-16 -22t-17 -28t-17.5 -29.5l-140 -222q-21 -33 -21 -66v-154q0 -47 18 -57.5t84 -10.5v-34q-26 0 -74.5 0.5t-72.5 1.5q-24 -1 -72.5 -1.5t-74.5 -0.5v34
q66 0 84 10.5t18 57.5v158q0 31 -4 44t-21 39z"/>
            <glyph glyph-name="Z" unicode="Z" horiz-adv-x="667"
                   d="M606 670l-458 -628h297q26 0 42.5 2t29 9t18.5 14.5t11 26.5t7 36t5 51q1 14 2 22h63v-203h-591v20l454 629h-234q-21 0 -36 -1t-27 -4.5t-19.5 -6t-14 -10.5t-9.5 -13t-6 -18.5t-4 -21.5t-4 -28t-5 -33h-53v177h532v-20z"/>
            <glyph glyph-name="bracketleft" unicode="["
                   d="M104 -125v870h180v-33h-108v-804h108v-33h-180z"/>
            <glyph glyph-name="backslash" unicode="\" horiz-adv-x="606"
                   d="M81 745h72l377 -755h-72z"/>
            <glyph glyph-name="bracketright" unicode="]"
                   d="M158 -92v804h-108v33h180v-870h-180v33h108z"/>
            <glyph glyph-name="asciicircum" unicode="^" horiz-adv-x="606"
                   d="M121 284h-70l219 406h66l218 -406h-70l-181 326z"/>
            <glyph glyph-name="underscore" unicode="_" horiz-adv-x="500"
                   d="M500 -144h-500v38h500v-38z"/>
            <glyph glyph-name="grave" unicode="`"
                   d="M243 524h-46l-157 104q-24 13 -26 32.5t11 27.5q8 15 26.5 16t40.5 -22z"/>
            <glyph glyph-name="a" unicode="a" horiz-adv-x="500"
                   d="M324 232h-55q-36 0 -57.5 -3t-43 -12.5t-31 -31t-9.5 -56.5q0 -101 86 -101q64 0 87 24t23 84v96zM324 265v101q0 75 -93 75q-59 0 -75 -22t-16 -75q0 -26 -43 -26q-38 1 -31 51q13 106 177 106q90 0 126.5 -35t36.5 -122v-218q0 -46 12.5 -56.5t66.5 -13.5v-32
q-11 1 -38.5 1.5t-40.5 0.5t-39 -1t-39 -1v40q-52 -47 -125 -47q-81 0 -121 31.5t-40 108.5q0 28 8.5 50.5t19.5 36.5t33 24t38 14.5t46 7t46 2.5t48 -0.5t43 -0.5z"/>
            <glyph glyph-name="b" unicode="b" horiz-adv-x="556"
                   d="M165 745v-326q55 56 143 56q111 0 156 -56t45 -172q0 -257 -192 -257q-102 0 -150 33l-84 -33v652q0 47 -13.5 58t-75.5 13v32h171zM163 285v-85q0 -34 1.5 -56t8.5 -47.5t20 -40t37 -24t58 -9.5q132 0 132 200q0 31 -1 49t-4 48t-11 47.5t-21.5 36t-36 27t-52.5 8.5
q-131 0 -131 -154z"/>
            <glyph glyph-name="c" unicode="c" horiz-adv-x="500"
                   d="M398 146h50v-117q-77 -39 -184 -39q-124 0 -171 58.5t-47 186.5q0 123 51 181.5t172 58.5q49 0 101.5 -10.5t77.5 -35.5v-106h-52q-1 6 -2.5 25t-3.5 28t-9 24.5t-18 23t-31.5 13.5t-49.5 6q-48 0 -79 -16t-45 -48t-18.5 -64t-4.5 -80q0 -38 2 -65t11 -57t24 -48.5
t43.5 -30.5t67.5 -12q18 0 32.5 1.5t25.5 6t19 7.5t13.5 12t9 14t6 18t3.5 18.5t3 22.5t3 24z"/>
            <glyph glyph-name="d" unicode="d" horiz-adv-x="611"
                   d="M412 185v68q0 37 -1.5 59.5t-9 49.5t-21 42t-38.5 25t-61 10q-31 0 -54.5 -9.5t-37.5 -29t-22.5 -38t-11.5 -50t-4 -50t-1 -51.5q0 -34 6.5 -65t20 -59t40.5 -45t63 -17q72 0 102 42t30 118zM414 420v222q0 47 -13.5 58t-75.5 13v32h171v-644q0 -46 14 -58.5t75 -12.5
v-32q-15 0 -44.5 1t-44.5 1q-13 0 -40.5 -1t-41.5 -1v59q-57 -67 -147 -67q-102 0 -154 59.5t-52 163.5q0 262 209 262q86 0 144 -55z"/>
            <glyph glyph-name="e" unicode="e" horiz-adv-x="500"
                   d="M137 265h229q10 178 -114 178q-119 0 -115 -178zM457 231h-320q0 -26 0.5 -40.5t3 -39.5t7 -40t14 -33.5t22.5 -29t34 -17.5t47 -7q22 0 39 3.5t28.5 12t19.5 15.5t13.5 21t8 21.5t6 24t4.5 20.5q0 16 34 16q10 0 15 -0.5t10.5 -4.5t5.5 -12q-22 -151 -198 -151
q-61 0 -102.5 20t-63 58.5t-30 83.5t-8.5 107q0 103 56.5 159.5t158.5 56.5q207 0 195 -244z"/>
            <glyph glyph-name="f" unicode="f"
                   d="M209 465h121v-38h-121v-328q0 -46 15 -57.5t81 -11.5v-32q-24 0 -69 0.5t-68 1.5q-22 0 -65 -0.5t-65 -1.5v32q6 0 20 1t18 1.5t13.5 1.5t11.5 2.5t8.5 3.5t7.5 5.5t4.5 8.5t3.5 11.5t1 14.5t1 19v328h-86v38h86v123q0 72 37.5 114.5t109.5 42.5q50 0 79 -19t35 -66v-6
v-6v-6.5t-1 -6.5t-2.5 -5.5t-4 -3.5t-6 -2t-8.5 0h-36q-16 -3 -19 10t1 22v7q0 7 -2 15t-6 17t-13.5 14.5t-23.5 4.5q-17 -1 -28.5 -8t-17.5 -15t-9 -23t-3 -23v-23v-7v-150z"/>
            <glyph glyph-name="g" unicode="g" horiz-adv-x="500"
                   d="M281 -6h-155q-48 -77 -36 -126q14 -45 56 -65t95 -20q43 0 85 21t64.5 60t-0.5 93q-11 18 -31 27t-36.5 10t-41.5 0zM234 181q106 0 106 131q0 130 -106 130q-107 0 -107 -130q0 -131 107 -131zM348 458l106 12l12 -2l2 -43l-84 3q41 -50 41 -117q0 -84 -59 -124
t-147 -40q-73 6 -98 24q-16 -46 -3.5 -77t52.5 -30q8 0 54 3t70 3q85 0 131 -29t46 -109q0 -57 -37 -100t-88.5 -62.5t-107.5 -19.5q-36 0 -69.5 5t-69 17.5t-57.5 39.5t-22 65q0 44 18.5 71t58.5 52q-43 80 -1 188q-53 50 -53 121q0 80 53 123t134 43q64 0 118 -17z"/>
            <glyph glyph-name="h" unicode="h" horiz-adv-x="611"
                   d="M500 303v-202q0 -46 14 -58.5t75 -12.5v-32q-22 1 -65 1.5t-65 0.5t-65 -0.5t-65 -1.5v32q6 0 20.5 1t18 1.5t13.5 1.5t12 2.5t8.5 4t7 6t4 8.5t3.5 11.5t1 15t1 19.5v177q0 31 -0.5 48.5t-6 40.5t-16 35t-30.5 20.5t-49 8.5q-70 0 -97 -38t-27 -110v-182q0 -46 14 -58.5
t75 -12.5v-32q-22 1 -65 1.5t-65 0.5t-65 -0.5t-65 -1.5v32q6 0 20.5 1t18 1.5t13.5 1.5t12 2.5t8.5 4t7 6t4 8.5t3.5 11.5t1 15t1 19.5v541q0 45 -14.5 58t-74.5 13v32h172v-338h2q45 63 162 68q89 0 116 -40t27 -132z"/>
            <glyph glyph-name="i" unicode="i"
                   d="M207 465v-365q0 -45 14 -57.5t75 -12.5v-32q-86 2 -130 2t-130 -2v32q61 0 75 12.5t14 57.5v263q0 47 -13 56.5t-76 14.5v31h171zM162 573q-26 0 -41 18.5t-15 47.5t15 47.5t41 18.5t41 -18.5t15 -47.5t-15 -47.5t-41 -18.5z"/>
            <glyph glyph-name="j" unicode="j" horiz-adv-x="278"
                   d="M113 24v339q0 47 -13.5 57.5t-75.5 12.5v32h171v-457q0 -122 -40.5 -183.5t-153.5 -74.5v17q27 8 45 18t30.5 28t19 32t10.5 48t5 56.5t2 74.5zM142 573q-26 0 -41 18.5t-15 47.5t15 47.5t41 18.5t41 -18.5t15 -47.5t-15 -47.5t-41 -18.5z"/>
            <glyph glyph-name="k" unicode="k" horiz-adv-x="556"
                   d="M193 745v-476q7 6 27.5 24t31.5 28.5t27 27t27.5 32t19.5 30.5q20 37 17 54h167v-27q-28 0 -51 -4.5t-38 -10t-37 -23t-33 -27.5t-40.5 -40t-45.5 -46l136 -147q67 -72 93 -90.5t60 -18.5v-33q-12 0 -36.5 1t-36.5 1t-36.5 -1t-36.5 -1q-133 167 -215 238v-136
q0 -45 14 -57.5t75 -12.5v-32q-22 1 -65 1.5t-65 0.5t-65 -0.5t-65 -1.5v32q61 1 75 14t14 56v543q0 47 -13.5 57.5t-75.5 12.5v32h171z"/>
            <glyph glyph-name="l" unicode="l"
                   d="M126 99v545q0 45 -14 57t-75 12v32h171v-645q0 -45 14 -57.5t75 -12.5v-32q-86 2 -130 2t-130 -2v32q61 0 75 12t14 57z"/>
            <glyph glyph-name="m" unicode="m" horiz-adv-x="889"
                   d="M186 465v-56q65 66 159 66q45 0 76.5 -14.5t55.5 -60.5q58 75 161 75q78 0 109.5 -34t31.5 -111v-229q0 -46 13.5 -58.5t72.5 -12.5v-32q-20 1 -63 1.5t-64 0.5t-62.5 -0.5t-59.5 -1.5v32q53 1 67.5 14.5t13.5 56.5v208q0 59 -18.5 90.5t-73.5 31.5q-67 0 -93.5 -35
t-26.5 -104v-191q0 -44 13 -57.5t66 -13.5v-32q-17 1 -58.5 1.5t-61.5 0.5q-21 0 -62 -0.5t-59 -1.5v32q54 1 67.5 15t12.5 56v197q0 27 -1 42.5t-6 36t-14.5 31t-27.5 18t-44 6.5q-72 -3 -95.5 -38.5t-23.5 -108.5v-184q0 -44 13 -57.5t68 -13.5v-32q-18 1 -59.5 1.5
t-62.5 0.5q-22 0 -64.5 -0.5t-63.5 -1.5v32q58 0 73 14t14 57v264q0 47 -13.5 58t-73.5 13v29h164z"/>
            <glyph glyph-name="n" unicode="n" horiz-adv-x="611"
                   d="M189 465v-56q48 39 80 52.5t88 13.5q89 0 116 -40t27 -132v-202q0 -45 13.5 -58t73.5 -13v-32q-21 1 -63.5 1.5t-64.5 0.5q-21 0 -64 -0.5t-63 -1.5v32q59 4 69 11q17 12 17 60v177q0 32 -1 48.5t-6 40t-15.5 35t-30.5 20.5t-49 9q-71 0 -96.5 -37t-25.5 -111v-182
q0 -45 13.5 -58t71.5 -13v-32q-20 1 -62.5 1.5t-63.5 0.5q-22 0 -65 -0.5t-65 -1.5v32q6 0 20.5 1t18 1.5t13.5 1.5t12 2.5t8.5 4t7 6t4 8.5t3.5 11.5t1 15t1 19.5v263q0 48 -13.5 58.5t-75.5 12.5v30h166z"/>
            <glyph glyph-name="o" unicode="o" horiz-adv-x="556"
                   d="M278 475q117 0 172 -59t55 -183q0 -121 -51.5 -181.5t-175.5 -61.5q-124 1 -175.5 61.5t-51.5 181.5q0 124 55 183t172 59zM278 441q-38 0 -64.5 -12.5t-40.5 -30.5t-21.5 -48.5t-9 -54.5t-1.5 -62t1.5 -62t9 -55t21.5 -49t40.5 -30.5t64.5 -12.5t64.5 12.5t40.5 30.5
t21.5 49t9 55t1.5 62t-1.5 62t-9 54.5t-21.5 48.5t-40.5 30.5t-64.5 12.5z"/>
            <glyph glyph-name="p" unicode="p" horiz-adv-x="611"
                   d="M200 317v-178q0 -52 33 -82t86 -30q33 0 57.5 7.5t39 24t24 33.5t13.5 45t5 48.5t1 53.5q0 43 -4.5 73.5t-17.5 61.5t-41 47t-71 16q-58 0 -91.5 -32.5t-33.5 -87.5zM200 41v-191q0 -48 17.5 -59t85.5 -11v-32q-26 0 -73 0.5t-70 1.5q-22 0 -65 -0.5t-65 -1.5v32
q60 4 70 9q18 13 18 61v513q0 45 -14 57.5t-74 12.5v32h166v-60q46 70 157 70q196 0 196 -235q0 -124 -52 -187t-172 -63q-64 0 -125 51z"/>
            <glyph glyph-name="q" unicode="q" horiz-adv-x="556"
                   d="M384 -150v195q-54 -55 -155 -55q-97 0 -143 66t-46 168q0 251 208 251q10 0 18 -0.5t16.5 -1.5t14.5 -2t14 -3.5t12.5 -4t13.5 -5.5t13.5 -5.5t15 -6.5t15.5 -7l85 36v-625q0 -45 14 -57.5t75 -12.5v-32q-22 1 -65 1.5t-65 0.5t-65 -0.5t-65 -1.5v32q6 0 20 1t18 1.5
t13.5 1.5t12 2.5t8.5 4t7 6t4.5 8t3.5 11.5t1 15t1 19zM384 171v154q-4 112 -128 112q-34 0 -58.5 -14.5t-37 -34t-19.5 -51.5t-8.5 -55.5t-1.5 -57.5q0 -39 3.5 -68t15 -61.5t37.5 -50t66 -17.5q74 0 101.5 34.5t29.5 109.5z"/>
            <glyph glyph-name="r" unicode="r" horiz-adv-x="389"
                   d="M181 465v-49q43 59 101 59q41 0 65.5 -21.5t24.5 -62.5q0 -3 -0.5 -10.5t-0.5 -9.5t-1 -8t-2 -8l-3 -6t-4.5 -5t-6.5 -3t-9 -2.5t-12 -0.5q-5 0 -9.5 0.5t-8 1.5t-6.5 3t-4.5 3.5t-3 5t-2 5t-1.5 6.5t-1 7t-0.5 8t-0.5 8q-3 42 -42 42q-68 0 -68 -120v-207
q0 -48 15 -59.5t83 -11.5v-32q-25 0 -70.5 0.5t-68.5 1.5q-22 0 -65 -0.5t-65 -1.5v32q60 1 74.5 13t14.5 58v263q0 48 -13.5 58.5t-75.5 12.5v30h166z"/>
            <glyph glyph-name="s" unicode="s" horiz-adv-x="444"
                   d="M50 18v133h52q1 -9 2.5 -30.5t2.5 -31.5t7 -25.5t15.5 -22.5t27.5 -13t44 -6q47 0 81.5 23t34.5 68q0 21 -8.5 36t-29 26t-34.5 15.5t-45 12.5q-7 2 -11 3q-30 8 -48 15t-39 20t-31 34t-10 50q0 79 50 114.5t133 35.5q72 0 125 -25v-120h-53q-1 7 -2.5 25.5t-2 23.5
t-3 18t-6 16.5t-9.5 11t-14.5 9.5t-21 4.5t-28.5 2.5q-56 -2 -75 -22.5t-19 -66.5q0 -19 16 -37.5t43 -27.5q14 -5 43 -12.5t46 -12.5t40 -16t36 -23.5t22.5 -34t9.5 -49.5q0 -47 -19.5 -78.5t-54.5 -45.5t-70 -19.5t-80 -5.5q-67 0 -117 28z"/>
            <glyph glyph-name="t" unicode="t"
                   d="M292 427h-113v-288q0 -23 1.5 -38.5t7.5 -34t20.5 -28t36.5 -9.5q21 0 48 10l17 8l12 -28q-58 -29 -118 -29q-30 0 -50.5 9t-31.5 21t-17 35t-7 41t-1 48v283h-78v38h78v135l82 35v-170h113v-38z"/>
            <glyph glyph-name="u" unicode="u" horiz-adv-x="611"
                   d="M413 -2v58q-22 -29 -69 -47.5t-86 -18.5q-73 0 -111.5 28t-38.5 98v249q0 45 -14 57.5t-75 12.5v30h171v-296q0 -35 2.5 -55.5t12 -41.5t31 -30.5t55.5 -9.5t57.5 9.5t36 23t19 38.5t8 45.5t1.5 54.5v162q0 44 -13.5 57t-70.5 13v30h166v-365q0 -45 14 -57.5t75 -12.5
v-32q-15 0 -45 0.5t-45 1.5q-14 0 -40.5 -1t-40.5 -1z"/>
            <glyph glyph-name="v" unicode="v" horiz-adv-x="556"
                   d="M307 0h-70l-127 346q-4 9 -11 27.5t-9 23t-8.5 15.5t-10.5 13l-13 6.5t-19 5t-25 0.5v30q20 -1 59.5 -1t59.5 -1q20 1 59.5 1t59.5 1v-30q-2 0 -18 -0.5t-25.5 -2t-19.5 -7.5t-11 -17q-1 -4 3 -18l118 -328l110 315q6 13 6 23q1 13 -5 20.5t-18.5 10.5t-20 3.5t-21.5 0.5
v30q16 -1 47 -1t46 -1q16 1 47 1t46 1v-30q-41 -2 -56.5 -20t-39.5 -76z"/>
            <glyph glyph-name="w" unicode="w" horiz-adv-x="833"
                   d="M208 300l71 -226l132 391h70l114 -395l92 308q5 17 4 26q-1 15 -12 21t-32 8t-25 3v31q16 -1 48.5 -1t48.5 -1q16 1 48 1t48 1v-31q-45 -6 -59 -20.5t-31 -63.5l-122 -352h-72l-111 376l-129 -376h-74l-77 256q-39 129 -51 149q-13 22 -43 27q-5 0 -30 3v32
q20 -1 59.5 -1t59.5 -1q19 1 59 1t59 1v-31q-41 -2 -53.5 -8t-13.5 -25q0 -21 22 -103z"/>
            <glyph glyph-name="x" unicode="x" horiz-adv-x="556"
                   d="M315 263l129 -169q18 -24 27 -34t25.5 -19t41.5 -11v-32q-15 0 -45.5 1t-45.5 1t-45.5 -1t-45.5 -1v30q37 2 4 38l-94 128l-104 -132q-22 -26 8 -32v-32q-14 0 -40 1t-40 1t-40.5 -1t-39.5 -1v32q9 1 25.5 2.5t20.5 2t14.5 3t14 5.5t12 8.5t15 13t17.5 19.5l115 141
l-99 129l-14 17.5t-13.5 17t-12 13.5t-13 12t-13.5 8.5t-17 7.5t-19 3.5t-24 1.5v32q16 -1 49 -1t49 -1q17 1 49 1t49 1v-32q-9 0 -15 -6.5t0 -13.5l95 -122l45 62q28 38 40 58q10 18 -19 22v32q14 -1 40 -1t40 -1q13 1 40 1t40 1v-32q-69 1 -111 -53z"/>
            <glyph glyph-name="y" unicode="y" horiz-adv-x="556"
                   d="M250 0l-127 346q-3 8 -9.5 24t-8.5 20.5t-7 15t-7.5 12.5t-8.5 7.5t-10.5 6t-13.5 3t-18.5 2.5h-23.5v30q20 -1 59.5 -1t59.5 -1q19 1 59 1t59 1v-30q-2 0 -13 -1t-16.5 -2t-14.5 -3.5t-13 -7.5t-5 -13q-1 -4 3 -18l118 -326l110 313q6 13 6 23q0 6 -1 11.5t-5 9t-7 6
t-9.5 4t-10.5 2.5t-11.5 1.5t-10.5 0.5h-11h-9v30q15 -1 46 -1t46 -1q15 1 45.5 1t45.5 1v-30q-34 -3 -48 -21.5t-35 -73.5l-133 -339q-3 -9 -18 -50t-22.5 -59t-25.5 -51.5t-35 -49.5t-44 -29.5t-58 -13.5q-71 0 -81 57q-2 9 1.5 20t9.5 15q15 12 30.5 7.5t24.5 -13.5
t23 -20t27 -14q15 -3 29 3.5t25.5 22t21.5 32t19 39.5t14.5 39t12 36.5t8.5 25.5h-32z"/>
            <glyph glyph-name="z" unicode="z" horiz-adv-x="500"
                   d="M462 465v-30l-316 -397h200q32 0 46.5 23t18.5 85h51v-146h-425v31l311 396h-182q-14 0 -22.5 -6t-13.5 -22t-6.5 -27t-3.5 -37q-1 -7 -1 -11h-52v141h395z"/>
            <glyph glyph-name="braceleft" unicode="{"
                   d="M206 169v-168q0 -54 19 -84.5t64 -39.5v-2q-87 -2 -121 29.5t-34 123.5v163q0 54 -14.5 79t-61.5 38q45 14 60.5 40t15.5 76v180q0 85 36.5 113t118.5 28v-2q-47 -11 -65 -40t-18 -85v-178q0 -59 -16 -88.5t-65 -42.5v-2q50 -13 65.5 -44t15.5 -94z"/>
            <glyph glyph-name="bar" unicode="|" horiz-adv-x="606"
                   d="M270 -10v755h66v-755h-66z"/>
            <glyph glyph-name="braceright" unicode="}"
                   d="M127 440v178q0 56 -18 85t-65 40v2q82 0 118.5 -28t36.5 -113v-180q0 -50 15.5 -76t60.5 -40q-47 -13 -61.5 -38t-14.5 -79v-163q0 -92 -34 -123.5t-121 -29.5v2q45 9 64 39.5t19 84.5v168q0 63 15.5 94t65.5 44v2q-49 13 -65 42.5t-16 88.5z"/>
            <glyph glyph-name="asciitilde" unicode="~" horiz-adv-x="606"
                   d="M520 339l35 -40q-58 -109 -141 -109q-28 0 -135 44q-64 26 -87 26q-19 0 -35 -7.5t-30 -24.5t-21 -27t-20 -33l-35 40q30 53 62 84.5t80 31.5q35 0 117 -35q80 -36 105 -36q32 0 60 26t45 60z"/>
            <glyph glyph-name="uni00A0" unicode="&#xa0;" horiz-adv-x="278"
            />
            <glyph glyph-name="exclamdown" unicode="&#xa1;"
                   d="M190 201l32 -364q7 -87 -54 -87t-54 87l32 364q2 38 22 66q20 -28 22 -66zM168 333q-26 0 -41 18.5t-15 47.5t15 47.5t41 18.5t41 -18.5t15 -47.5t-15 -47.5t-41 -18.5z"/>
            <glyph glyph-name="cent" unicode="&#xa2;" horiz-adv-x="556"
                   d="M227 42l124 396q-22 5 -41 5q-48 0 -79 -16t-45 -48t-18.5 -64t-4.5 -80q0 -74 12.5 -121.5t51.5 -71.5zM361 470l28 91h35l-30 -96q58 -12 82 -36v-106h-52l-4 41q-3 17 -5 24.5t-10 18.5t-23 20l-124 -398q22 -7 53 -7q18 0 32.5 1.5t25.5 6t19 7.5t13.5 12t9 14t6 18
t3.5 18.5t3 22.5t3 24h50v-117l-7 -4q-67 -35 -177 -35q-26 0 -45 3l-35 -110h-35l36 116q-78 17 -108.5 74t-30.5 162q0 123 51 181.5t172 58.5q34 0 64 -5z"/>
            <glyph glyph-name="sterling" unicode="&#xa3;" horiz-adv-x="556"
                   d="M229 345h177v-38h-180q-11 -82 -31.5 -132t-72.5 -102q54 6 81 6q35 0 106 -5t107 -5q20 0 31 4t20.5 22t12.5 54h31v-137q-50 -20 -109 -20q-33 0 -137 25q-106 24 -164 24q-16 -16 -40.5 -32.5t-39.5 -15.5q-23 2 -25 26q0 16 11 27q13 18 80 22q52 70 52 239h-114v38
h117q4 60 9 97.5t24 87.5t52 81q59 57 134 57q65 0 106 -31.5t41 -94.5q4 -35 -29 -35h-16q-28 0 -32 12q-1 3 -4 38q0 77 -71 77q-40 0 -67 -26.5t-38.5 -78.5t-15 -82t-5.5 -83q0 -5 -0.5 -7t-0.5 -5.5v-6.5z"/>
            <glyph glyph-name="currency" unicode="&#xa4;" horiz-adv-x="556"
                   d="M25 144l53 53q-48 65 -48 144q0 91 49 148l-54 54l51 52l54 -55q63 51 151 51q83 0 144 -49l53 53l51 -52l-54 -52q52 -61 52 -148q0 -86 -50 -146l53 -53l-50 -51l-53 53q-63 -52 -147 -52q-87 0 -151 52l-53 -53zM281 510q-71 0 -120.5 -48.5t-49.5 -120.5
q0 -70 49.5 -118t119.5 -48q69 0 117.5 49.5t48.5 118.5q0 68 -48.5 117.5t-116.5 49.5z"/>
            <glyph glyph-name="yen" unicode="&#xa5;" horiz-adv-x="556"
                   d="M243 204h-161v38h161q0 33 -3 45.5t-17 36.5h-141v38h122l-57 107q-9 16 -23.5 44t-21 39.5t-18.5 29t-21.5 25t-24 14.5t-32.5 8v33q20 0 59.5 -1t58.5 -1q20 0 59 1t59 1v-33q-60 -4 -66 -24t23 -70q6 -12 9 -19l99 -192l111 229q43 76 -43 76v33q14 0 43 -1t44 -1
q14 0 43 1t44 1v-33q-37 0 -53.5 -18.5t-43.5 -77.5q-4 -11 -7 -16l-84 -155h116v-38h-135l-10 -19q-16 -22 -16 -63h161v-38h-161v-109q0 -26 0.5 -33t8 -17.5t24 -12t48.5 -1.5v-33q-20 0 -59.5 0.5t-58.5 1.5q-19 -1 -58 -1.5t-60 -0.5v33q32 0 48 1.5t24 11t9 18t1 33.5
v109z"/>
            <glyph glyph-name="brokenbar" unicode="&#xa6;" horiz-adv-x="606"
                   d="M270 -10v301h66v-301h-66zM270 745h66v-301h-66v301z"/>
            <glyph glyph-name="section" unicode="&#xa7;" horiz-adv-x="556"
                   d="M175 268l148 -87l67 -45q3 3 13.5 13t13 13.5t8.5 11.5t7.5 16.5t1.5 19.5q0 16 -6 29.5t-21.5 26.5t-23.5 18.5t-31 19t-25 14.5l-95 54q-10 7 -30.5 21t-31.5 20q-48 -24 -48 -74q0 -25 13.5 -40.5t39.5 -30.5zM314 96l-90 53q-8 4 -39 21t-45 26.5t-35.5 27t-30.5 38
t-9 44.5q0 91 85 129q-42 44 -42 101q-3 75 42.5 121.5t137.5 47.5q64 0 109.5 -32t46.5 -102q0 -12 -17 -17.5t-34 -1.5t-17 15q-7 108 -94 108q-44 0 -74 -30.5t-30 -74.5q0 -54 38.5 -88.5t135.5 -86.5q36 -20 50.5 -29t39 -29.5t34.5 -44t10 -53.5q0 -78 -77 -122
q40 -39 37 -101q0 -79 -49 -123.5t-129 -44.5q-85 1 -128.5 36.5t-37.5 116.5q0 11 18 15t35 -2.5t16 -20.5q-5 -49 18.5 -82.5t75.5 -33.5q50 0 81.5 29t31.5 79q0 36 -16 61t-48 50z"/>
            <glyph glyph-name="dieresis" unicode="&#xa8;"
                   d="M65 573q-22 0 -37.5 16t-15.5 37q0 22 15.5 38t37.5 16t37.5 -16t15.5 -38q0 -21 -15.5 -37t-37.5 -16zM269 680q21 0 37 -16.5t16 -37.5t-16 -37t-37 -16t-37.5 16t-16.5 37q0 22 16 38t38 16z"/>
            <glyph glyph-name="copyright" unicode="&#xa9;" horiz-adv-x="747"
                   d="M373 -10q-145 0 -247 104.5t-102 251.5q0 149 102 254t247 105q146 0 248.5 -105t102.5 -254q0 -147 -103 -251.5t-248 -104.5zM373 650q-121 0 -207.5 -89.5t-86.5 -214.5q0 -124 86.5 -212.5t207.5 -88.5q122 0 209 88.5t87 212.5q0 126 -87 215t-209 89zM521 516v-104
h-32q-6 43 -30.5 70t-66.5 27q-58 0 -88.5 -44.5t-30.5 -104.5q0 -79 34.5 -127.5t94.5 -48.5q29 0 56 13t41 37l8 14l26 -11q-18 -45 -63 -68.5t-97 -23.5q-84 0 -135 55.5t-51 140.5q0 90 54.5 146.5t142.5 56.5q68 0 137 -28z"/>
            <glyph glyph-name="ordfeminine" unicode="&#xaa;" horiz-adv-x="300"
                   d="M190 545h-36q-92 10 -92 -62q0 -60 56 -60q36 2 56 16t16 48v58zM6 356h288v-38h-288v38zM190 565v60q0 45 -61 45q-27 3 -46.5 -12t-12.5 -46q0 -15 -28 -15q-24 0 -21 29q9 64 116 64q56 0 81 -19.5t25 -73.5v-131q0 -26 8.5 -34t42.5 -8v-19h-102v24q-34 -28 -81 -28
q-53 -1 -80.5 21t-24.5 62q0 20 6 35t19.5 23.5t25.5 14t34 7t33.5 2t35.5 0t30 -0.5z"/>
            <glyph glyph-name="guillemotleft" unicode="&#xab;" horiz-adv-x="556"
                   d="M287 444l-123 -196l123 -194v-6h-39l-153 187v27l153 188h39v-6zM463 444l-123 -196l123 -194v-6h-39l-153 187v27l153 188h39v-6z"/>
            <glyph glyph-name="logicalnot" unicode="&#xac;" horiz-adv-x="606"
                   d="M491 112v206h-440v64h504v-270h-64z"/>
            <glyph glyph-name="uni00AD" unicode="&#xad;"
                   d="M289 211h-245v74h245v-74z"/>
            <glyph glyph-name="registered" unicode="&#xae;" horiz-adv-x="747"
                   d="M375 -10q-146 0 -248.5 105t-102.5 254q0 147 103 251.5t248 104.5t247 -104.5t102 -251.5q0 -149 -102 -254t-247 -105zM375 650q-122 0 -209 -88.5t-87 -212.5q0 -126 87 -215t209 -89t208 89t86 215q0 124 -86.5 212.5t-207.5 88.5zM257 213v286q0 19 -4.5 23.5
t-23.5 5.5h-15v21h153q84 0 117 -20t33 -73q0 -42 -28 -69t-70 -33v-2q15 -3 27 -11.5t22 -24t15 -25t14 -28.5q2 -5 7 -17t7.5 -16.5t7 -13t8 -12t9 -8.5t12 -7t14.5 -3v-21h-69q-2 1 -5.5 1.5t-5 1t-4 1.5t-4.5 2t-4 2.5t-4 3.5t-4 5q-15 20 -40 78t-32 65q-12 13 -48 13
h-15v-121q0 -7 1 -12t3 -8.5t3 -5.5t5.5 -3t7 -1t10.5 -0.5t13 -0.5v-21h-157v21h14h4q21 2 24 11q2 5 2 16zM327 488v-124h19q48 0 74.5 18t26.5 65q0 40 -21.5 60t-60.5 18h-21q-4 0 -7 -1t-5 -4t-3 -5t-1.5 -6.5t-0.5 -7v-7.5v-6z"/>
            <glyph glyph-name="macron" unicode="&#xaf;"
                   d="M27 564v59h280v-59h-280z"/>
            <glyph glyph-name="degree" unicode="&#xb0;" horiz-adv-x="400"
                   d="M350 485q0 -62 -44 -106t-106 -44t-106 44t-44 106q-1 61 43.5 105.5t106.5 44.5t106 -44.5t44 -105.5zM310 485q0 45 -32.5 77.5t-78.5 32.5q-45 0 -77.5 -32.5t-31.5 -77.5q0 -46 32 -78t78 -32q45 0 77.5 32t32.5 78z"/>
            <glyph glyph-name="plusminus" unicode="&#xb1;" horiz-adv-x="606"
                   d="M271 348v156h64v-156h220v-64h-220v-157h-64v157h-220v64h220zM555 0h-504v64h504v-64z"/>
            <glyph glyph-name="twosuperior" unicode="&#xb2;"
                   d="M298 254h-263v54l55 54q75 70 98 104q28 41 28 76q0 62 -52 62q-13 0 -23 -1.5t-17 -5.5t-11.5 -6t-7.5 -9.5t-4 -9.5t-3.5 -11.5t-2.5 -11.5v-7.5t-0.5 -9t-4 -6.5t-11.5 -3h-23q-15 -1 -12 35q3 41 38.5 59t84.5 18q53 0 89 -21t36 -67q0 -17 -8.5 -36t-18.5 -34
t-29.5 -34.5t-30.5 -29t-33.5 -28t-26.5 -22.5l-65 -57h141h19t13.5 3.5t9 4.5t5.5 8.5t3 10t2 14t2 15.5h23v-108z"/>
            <glyph glyph-name="threesuperior" unicode="&#xb3;"
                   d="M116 434v32q18 -2 28 -2q45 3 58.5 17t13.5 59q0 34 -10.5 50.5t-43.5 19.5q-34 3 -48.5 -11t-16.5 -45l-2 -10q1 -6 -4 -9.5t-12 -2.5h-20q-16 0 -14 14q0 89 120 89q53 0 87 -23t34 -70q0 -32 -18.5 -54.5t-52.5 -30.5v-2q40 -7 61 -32.5t21 -63.5q0 -111 -148 -111
q-56 0 -84 23t-29 61q0 25 20 25h15q14 0 17 -5.5t3 -19.5q0 -2 0.5 -11t2 -15.5t6.5 -14.5t17 -12.5t31 -4.5q45 0 60.5 20.5t15.5 63.5q0 45 -13 63.5t-57 18.5q-5 0 -38 -6z"/>
            <glyph glyph-name="acute" unicode="&#xb4;"
                   d="M136 524h-46l151 158q22 23 40.5 22t26.5 -16q13 -8 11 -27.5t-26 -32.5z"/>
            <glyph glyph-name="mu" unicode="&#xb5;" horiz-adv-x="611"
                   d="M413 -2v58q-22 -29 -69 -47.5t-86 -18.5q-32 0 -72 8l16 -130q9 -46 -7.5 -66.5t-39.5 -20.5q-47 0 -47 87v497q0 45 -14 57.5t-75 12.5v30h171v-296q0 -35 2.5 -55.5t12 -41.5t31 -30.5t55.5 -9.5t57.5 9.5t36 23t19 38.5t8 45.5t1.5 54.5v162q0 44 -13.5 57t-70.5 13
v30h166v-365q0 -45 14 -57.5t75 -12.5v-32q-15 0 -45 0.5t-45 1.5q-14 0 -40.5 -1t-40.5 -1z"/>
            <glyph glyph-name="paragraph" unicode="&#xb6;" horiz-adv-x="628"
                   d="M494 656v-765h64v-38h-355v38h77v416l-36 -3q-89 0 -141.5 50.5t-52.5 145.5q0 104 53.5 147t200.5 43h253v-34h-63zM431 656h-88v-765h88v765zM280 336v320q-57 2 -76 -29.5t-19 -96.5v-69q0 -61 20 -95t75 -30z"/>
            <glyph glyph-name="periodcentered" unicode="&#xb7;" horiz-adv-x="278"
                   d="M139 191q-25 0 -44 18.5t-19 44.5q0 25 19 43.5t44 18.5t43.5 -18.5t18.5 -43.5t-18.5 -44t-43.5 -19z"/>
            <glyph glyph-name="cedilla" unicode="&#xb8;" horiz-adv-x="500"
                   d="M191 -89l37 89h34l-20 -56q49 10 79.5 -8.5t32.5 -57.5q3 -40 -41 -64.5t-81 -19.5q-44 0 -86 16l16 30q40 -10 59 -10q22 -2 39.5 10t18.5 36q1 23 -22 31.5t-59 -2.5z"/>
            <glyph glyph-name="onesuperior" unicode="&#xb9;"
                   d="M158 635h62v-315q0 -29 10.5 -35t65.5 -6v-20q-53 1 -114 1q-62 0 -111 -1v20q58 0 69.5 6t11.5 35v280q-76 -56 -114 -65v33q59 17 120 67z"/>
            <glyph glyph-name="ordmasculine" unicode="&#xba;" horiz-adv-x="334"
                   d="M167 690q76 0 112 -35.5t36 -109.5q0 -71 -34 -107.5t-114 -37.5q-80 1 -114 37.5t-34 107.5q0 74 36 109.5t112 35.5zM167 670q-25 0 -42 -7.5t-26 -18.5t-14 -29.5t-6 -33t-1 -36.5t1 -36.5t6 -33t14 -29.5t26 -18.5t42 -7.5t42 7.5t26 18.5t14 29.5t6 33t1 36.5
t-1 36.5t-6 33t-14 29.5t-26 18.5t-42 7.5zM19 356h296v-38h-296v38z"/>
            <glyph glyph-name="guillemotright" unicode="&#xbb;" horiz-adv-x="556"
                   d="M264 52l123 196l-123 194v6h39l153 -186v-28l-153 -188h-39v6zM88 52l123 196l-123 194v6h39l153 -186v-28l-153 -188h-39v6z"/>
            <glyph glyph-name="onequarter" unicode="&#xbc;" horiz-adv-x="834"
                   d="M670 147v181l-131 -181h131zM485 103v34q91 116 179 237h68v-227h67l-6 -44h-61v-44q0 -29 10.5 -35.5t56.5 -6.5v-19q-46 1 -103 1q-56 0 -101 -1v19q52 -1 64.5 6t10.5 36v44h-185zM278 0h-51l388 635h50zM35 535v33q59 17 120 67h62v-315q0 -29 10.5 -35t65.5 -6v-20
q-53 1 -114 1q-62 0 -111 -1v20q58 0 69.5 6t11.5 35v280q-76 -56 -114 -65z"/>
            <glyph glyph-name="onehalf" unicode="&#xbd;" horiz-adv-x="834"
                   d="M278 0h-51l388 635h50zM35 535v33q59 17 120 67h62v-315q0 -29 10.5 -35t65.5 -6v-20q-53 1 -114 1q-62 0 -111 -1v20q58 0 69.5 6t11.5 35v280q-76 -56 -114 -65zM798 0h-263v54l55 54q75 70 98 104q28 41 28 76q0 68 -52 68q-15 0 -26.5 -3t-18 -6t-11.5 -12t-6 -12
t-4 -15t-3 -13v-7.5t-0.5 -9t-4 -6.5t-11.5 -3h-23q-15 -1 -12 35q3 41 38.5 59t84.5 18q53 0 89 -21t36 -67q0 -17 -8.5 -36t-18.5 -34t-29.5 -34.5t-30.5 -29t-33.5 -28t-26.5 -22.5l-65 -57h141h19t13.5 3.5t9 4.5t5.5 8.5t3 10t2 14t2 15.5h23v-108z"/>
            <glyph glyph-name="threequarters" unicode="&#xbe;" horiz-adv-x="834"
                   d="M665 147v181l-131 -181h131zM480 103v34q91 116 179 237h68v-227h67l-6 -44h-61v-44q0 -29 10.5 -35.5t56.5 -6.5v-19q-46 1 -103 1q-56 0 -101 -1v19q52 -1 64.5 6t10.5 36v44h-185zM271 0h-51l388 635h50zM121 434v32q18 -2 28 -2q45 3 58.5 17t13.5 59
q0 34 -10.5 50.5t-43.5 19.5q-34 3 -48.5 -11t-16.5 -45l-2 -10q1 -6 -4 -9.5t-12 -2.5h-20q-16 0 -14 14q0 89 120 89q53 0 87 -23t34 -70q0 -32 -18.5 -54.5t-52.5 -30.5v-2q40 -7 61 -32.5t21 -63.5q0 -111 -148 -111q-56 0 -84 23t-29 61q0 25 20 25h15q14 0 17 -5.5
t3 -19.5q0 -2 0.5 -11t2 -15.5t6.5 -14.5t17 -12.5t31 -4.5q45 0 60.5 20.5t15.5 63.5q0 45 -13 63.5t-57 18.5q-5 0 -38 -6z"/>
            <glyph glyph-name="questiondown" unicode="&#xbf;" horiz-adv-x="444"
                   d="M184 28l29 194q9 41 22 41q16 0 21 -45l19 -211q-72 -2 -94 -14q-44 -22 -44 -109q0 -47 23.5 -75.5t70.5 -28.5q83 0 87 111q0 1 0.5 5t0.5 5t0.5 4.5t2 5t3 3.5t4 2.5t6.5 0.5h47q15 0 13 -22q0 -73 -50.5 -109t-125.5 -36q-72 0 -122.5 35.5t-50.5 104.5
q0 61 37.5 96.5t100.5 41.5zM235 465q26 0 41 -18.5t15 -47.5t-15 -47.5t-41 -18.5t-41 18.5t-15 47.5t15 47.5t41 18.5z"/>
            <glyph glyph-name="Agrave" unicode="&#xc0;" horiz-adv-x="778"
                   d="M361 690h66l210 -549q23 -61 46 -83q29 -29 70 -26v-34q-23 0 -68.5 1t-68.5 1t-69 -1t-69 -1v36h9.5t20.5 2t26.5 5.5t21 12t9.5 19.5q0 14 -16 55l-65 167h-240l-62 -173q-9 -29 -9 -44q0 -16 7.5 -26t23 -13.5t24.5 -4t28 -0.5v-36q-20 0 -59 1t-59 1t-59 -1t-59 -1
v36q6 1 15.5 1.5t14 1t12 2.5t12 4.5t10.5 7.5t12 12q6 8 50 105zM471 333l-4 10l-100 257l-110 -267h214zM466 739h-46l-157 104q-24 13 -26 32.5t11 27.5q8 15 26.5 16t40.5 -22z"/>
            <glyph glyph-name="Aacute" unicode="&#xc1;" horiz-adv-x="778"
                   d="M361 690h66l210 -549q23 -61 46 -83q29 -29 70 -26v-34q-23 0 -68.5 1t-68.5 1t-69 -1t-69 -1v36h9.5t20.5 2t26.5 5.5t21 12t9.5 19.5q0 14 -16 55l-65 167h-240l-62 -173q-9 -29 -9 -44q0 -16 7.5 -26t23 -13.5t24.5 -4t28 -0.5v-36q-20 0 -59 1t-59 1t-59 -1t-59 -1
v36q6 1 15.5 1.5t14 1t12 2.5t12 4.5t10.5 7.5t12 12q6 8 50 105zM471 333l-4 10l-100 257l-110 -267h214zM359 739h-46l151 158q22 23 40.5 22t26.5 -16q13 -8 11 -27.5t-26 -32.5z"/>
            <glyph glyph-name="Acircumflex" unicode="&#xc2;" horiz-adv-x="778"
                   d="M361 690h66l210 -549q23 -61 46 -83q29 -29 70 -26v-34q-23 0 -68.5 1t-68.5 1t-69 -1t-69 -1v36h9.5t20.5 2t26.5 5.5t21 12t9.5 19.5q0 14 -16 55l-65 167h-240l-62 -173q-9 -29 -9 -44q0 -16 7.5 -26t23 -13.5t24.5 -4t28 -0.5v-36q-20 0 -59 1t-59 1t-59 -1t-59 -1
v36q6 1 15.5 1.5t14 1t12 2.5t12 4.5t10.5 7.5t12 12q6 8 50 105zM471 333l-4 10l-100 257l-110 -267h214zM424 908l124 -169h-43l-115 103l-116 -103h-43l124 169h69z"/>
            <glyph glyph-name="Atilde" unicode="&#xc3;" horiz-adv-x="778"
                   d="M361 690h66l210 -549q23 -61 46 -83q29 -29 70 -26v-34q-23 0 -68.5 1t-68.5 1t-69 -1t-69 -1v36h9.5t20.5 2t26.5 5.5t21 12t9.5 19.5q0 14 -16 55l-65 167h-240l-62 -173q-9 -29 -9 -44q0 -16 7.5 -26t23 -13.5t24.5 -4t28 -0.5v-36q-20 0 -59 1t-59 1t-59 -1t-59 -1
v36q6 1 15.5 1.5t14 1t12 2.5t12 4.5t10.5 7.5t12 12q6 8 50 105zM471 333l-4 10l-100 257l-110 -267h214zM252 764h-33q8 46 37.5 78t74.5 32q31 0 84 -28q42 -21 58 -20q21 1 35.5 17t18.5 34h34q-27 -112 -112 -112q-28 0 -92 30q-39 17 -51 17q-19 0 -35 -12t-19 -36z
"/>
            <glyph glyph-name="Adieresis" unicode="&#xc4;" horiz-adv-x="778"
                   d="M361 690h66l210 -549q23 -61 46 -83q29 -29 70 -26v-34q-23 0 -68.5 1t-68.5 1t-69 -1t-69 -1v36h9.5t20.5 2t26.5 5.5t21 12t9.5 19.5q0 14 -16 55l-65 167h-240l-62 -173q-9 -29 -9 -44q0 -16 7.5 -26t23 -13.5t24.5 -4t28 -0.5v-36q-20 0 -59 1t-59 1t-59 -1t-59 -1
v36q6 1 15.5 1.5t14 1t12 2.5t12 4.5t10.5 7.5t12 12q6 8 50 105zM471 333l-4 10l-100 257l-110 -267h214zM288 788q-22 0 -37.5 16t-15.5 37q0 22 15.5 38t37.5 16t37.5 -16t15.5 -38q0 -21 -15.5 -37t-37.5 -16zM492 895q21 0 37 -16.5t16 -37.5t-16 -37t-37 -16t-37.5 16
t-16.5 37q0 22 16 38t38 16z"/>
            <glyph glyph-name="Aring" unicode="&#xc5;" horiz-adv-x="778"
                   d="M361 690h66l210 -549q23 -61 46 -83q29 -29 70 -26v-34q-23 0 -68.5 1t-68.5 1t-69 -1t-69 -1v36h9.5t20.5 2t26.5 5.5t21 12t9.5 19.5q0 14 -16 55l-65 167h-240l-62 -173q-9 -29 -9 -44q0 -16 7.5 -26t23 -13.5t24.5 -4t28 -0.5v-36q-20 0 -59 1t-59 1t-59 -1t-59 -1
v36q6 1 15.5 1.5t14 1t12 2.5t12 4.5t10.5 7.5t12 12q6 8 50 105zM471 333l-4 10l-100 257l-110 -267h214zM490 826q0 -41 -29.5 -71t-71.5 -30t-71.5 30t-29.5 71q0 42 29.5 71.5t71.5 29.5t71.5 -29.5t29.5 -71.5zM329 826q0 -24 18 -42t42 -18t42 18t18 42q0 25 -18 42.5
t-42 17.5t-42 -17.5t-18 -42.5z"/>
            <glyph glyph-name="AE" unicode="&#xc6;" horiz-adv-x="1000"
                   d="M288 313h212v342h-8zM265 275l-98 -180q-11 -23 -6 -35q12 -28 84 -28v-34q-20 0 -60.5 1t-60.5 1t-60.5 -1t-61.5 -1v34q51 7 78 35t74 108q8 13 12 20l282 463h-89v32h588v-175h-53q-2 26 -2.5 35.5t-2.5 27.5t-3.5 23t-6 17t-8 14t-12 8.5t-16.5 6.5t-22 2.5
t-27.5 2.5h-34.5h-169v-273h78q70 0 87.5 15.5t17.5 85.5h44v-240h-44q0 39 -3 58t-16 30t-30.5 12.5t-55.5 0.5h-78v-300h179q76 1 95 27t30 135h53v-205q-67 0 -201 1t-201 1q-23 0 -70 -1t-71 -1v34q59 3 74 12q24 14 22 56v175h-235z"/>
            <glyph glyph-name="Ccedilla" unicode="&#xc7;" horiz-adv-x="667"
                   d="M568 207h57v-177q-30 -16 -125.5 -28t-140.5 -12h-16l-17 -46q49 10 79.5 -8.5t32.5 -57.5q2 -40 -41.5 -64.5t-80.5 -19.5q-44 0 -86 16l16 30q35 -9 59 -10q23 -1 40 10.5t18 35.5q1 23 -22 31.5t-59 -2.5l-7 6l34 81q-148 12 -211 101t-63 257q0 182 82.5 268.5
t262.5 86.5q112 0 245 -39v-161h-54l-3 29q-9 81 -49.5 107.5t-138.5 26.5q-241 0 -241 -301q0 -60 5 -106t20.5 -92.5t42 -76.5t71.5 -49t107 -19q58 0 91.5 8t53 32t26.5 54t12 89z"/>
            <glyph glyph-name="Egrave" unicode="&#xc8;" horiz-adv-x="611"
                   d="M15 0v34q30 0 47.5 2.5t28 5.5t14.5 13.5t5 18.5t1 28v488q0 20 -1 28t-5 18.5t-14.5 13.5t-28 5.5t-47.5 2.5v34h543v-176h-53q-2 40 -3.5 55.5t-7 36t-12 26t-23 12.5t-35.5 7.5t-54 0.5h-169v-276h78q70 0 87.5 16t17.5 87h44v-240h-44q-2 15 -3.5 34.5t-2.5 27.5
t-6 18.5t-15.5 14t-29 6t-48.5 2.5h-78v-301h179q76 1 95 27t30 134h53v-204h-543zM382 739h-46l-157 104q-24 13 -26 32.5t11 27.5q8 15 26.5 16t40.5 -22z"/>
            <glyph glyph-name="Eacute" unicode="&#xc9;" horiz-adv-x="611"
                   d="M15 0v34q30 0 47.5 2.5t28 5.5t14.5 13.5t5 18.5t1 28v488q0 20 -1 28t-5 18.5t-14.5 13.5t-28 5.5t-47.5 2.5v34h543v-176h-53q-2 40 -3.5 55.5t-7 36t-12 26t-23 12.5t-35.5 7.5t-54 0.5h-169v-276h78q70 0 87.5 16t17.5 87h44v-240h-44q-2 15 -3.5 34.5t-2.5 27.5
t-6 18.5t-15.5 14t-29 6t-48.5 2.5h-78v-301h179q76 1 95 27t30 134h53v-204h-543zM275 739h-46l151 158q22 23 40.5 22t26.5 -16q13 -8 11 -27.5t-26 -32.5z"/>
            <glyph glyph-name="Ecircumflex" unicode="&#xca;" horiz-adv-x="611"
                   d="M15 0v34q30 0 47.5 2.5t28 5.5t14.5 13.5t5 18.5t1 28v488q0 20 -1 28t-5 18.5t-14.5 13.5t-28 5.5t-47.5 2.5v34h543v-176h-53q-2 40 -3.5 55.5t-7 36t-12 26t-23 12.5t-35.5 7.5t-54 0.5h-169v-276h78q70 0 87.5 16t17.5 87h44v-240h-44q-2 15 -3.5 34.5t-2.5 27.5
t-6 18.5t-15.5 14t-29 6t-48.5 2.5h-78v-301h179q76 1 95 27t30 134h53v-204h-543zM340 908l124 -169h-43l-115 103l-116 -103h-43l124 169h69z"/>
            <glyph glyph-name="Edieresis" unicode="&#xcb;" horiz-adv-x="611"
                   d="M15 0v34q30 0 47.5 2.5t28 5.5t14.5 13.5t5 18.5t1 28v488q0 20 -1 28t-5 18.5t-14.5 13.5t-28 5.5t-47.5 2.5v34h543v-176h-53q-2 40 -3.5 55.5t-7 36t-12 26t-23 12.5t-35.5 7.5t-54 0.5h-169v-276h78q70 0 87.5 16t17.5 87h44v-240h-44q-2 15 -3.5 34.5t-2.5 27.5
t-6 18.5t-15.5 14t-29 6t-48.5 2.5h-78v-301h179q76 1 95 27t30 134h53v-204h-543zM204 788q-22 0 -37.5 16t-15.5 37q0 22 15.5 38t37.5 16t37.5 -16t15.5 -38q0 -21 -15.5 -37t-37.5 -16zM408 895q21 0 37 -16.5t16 -37.5t-16 -37t-37 -16t-37.5 16t-16.5 37q0 22 16 38
t38 16z"/>
            <glyph glyph-name="Igrave" unicode="&#xcc;"
                   d="M122 100v490q0 47 -17 57.5t-79 10.5v34q23 0 70 -1t71 -1q23 0 70 1t71 1v-34q-60 0 -78 -10.5t-18 -57.5v-490q0 -47 17 -57.5t79 -10.5v-34q-24 0 -71 1t-70 1t-70 -1t-71 -1v34q62 0 79 10.5t17 57.5zM243 739h-46l-157 104q-24 13 -26 32.5t11 27.5q8 15 26.5 16
t40.5 -22z"/>
            <glyph glyph-name="Iacute" unicode="&#xcd;"
                   d="M122 100v490q0 47 -17 57.5t-79 10.5v34q23 0 70 -1t71 -1q23 0 70 1t71 1v-34q-60 0 -78 -10.5t-18 -57.5v-490q0 -47 17 -57.5t79 -10.5v-34q-24 0 -71 1t-70 1t-70 -1t-71 -1v34q62 0 79 10.5t17 57.5zM136 739h-46l151 158q22 23 40.5 22t26.5 -16q13 -8 11 -27.5
t-26 -32.5z"/>
            <glyph glyph-name="Icircumflex" unicode="&#xce;"
                   d="M122 100v490q0 47 -17 57.5t-79 10.5v34q23 0 70 -1t71 -1q23 0 70 1t71 1v-34q-60 0 -78 -10.5t-18 -57.5v-490q0 -47 17 -57.5t79 -10.5v-34q-24 0 -71 1t-70 1t-70 -1t-71 -1v34q62 0 79 10.5t17 57.5zM201 908l124 -169h-43l-115 103l-116 -103h-43l124 169h69z"/>
            <glyph glyph-name="Idieresis" unicode="&#xcf;"
                   d="M122 100v490q0 47 -17 57.5t-79 10.5v34q23 0 70 -1t71 -1q23 0 70 1t71 1v-34q-60 0 -78 -10.5t-18 -57.5v-490q0 -47 17 -57.5t79 -10.5v-34q-24 0 -71 1t-70 1t-70 -1t-71 -1v34q62 0 79 10.5t17 57.5zM65 788q-22 0 -37.5 16t-15.5 37q0 22 15.5 38t37.5 16t37.5 -16
t15.5 -38q0 -21 -15.5 -37t-37.5 -16zM269 895q21 0 37 -16.5t16 -37.5t-16 -37t-37 -16t-37.5 16t-16.5 37q0 22 16 38t38 16z"/>
            <glyph glyph-name="Eth" unicode="&#xd0;" horiz-adv-x="722"
                   d="M203 646v-261h141v-41h-141v-301q52 -4 101 -4q156 0 210.5 61.5t54.5 225.5q0 49 -1 78.5t-6 68.5t-14 62t-25.5 48.5t-41 39t-60.5 22.5t-83 9q-67 0 -135 -8zM17 -2v34q30 0 47.5 2.5t28 5.5t14.5 13.5t5 18.5t1 28v244h-99v41h99v205q0 20 -1 28t-5 18.5t-14.5 13.5
t-28 5.5t-47.5 2.5v34q23 0 70 -1t71 -1q34 0 117.5 1t100.5 1q141 2 205 -52q91 -75 91 -282q0 -96 -13 -158.5t-47 -108t-93.5 -67.5t-151.5 -26q-35 0 -104.5 1t-104.5 1q-24 0 -70.5 -1t-70.5 -1z"/>
            <glyph glyph-name="Ntilde" unicode="&#xd1;" horiz-adv-x="778"
                   d="M113 100v490q0 46 -17.5 57t-74.5 11v34q15 0 43.5 -1t42.5 -1t42.5 1t42.5 1l428 -572v470q0 46 -17 57t-75 11v34q19 0 57 -1t57 -1t57 1t57 1v-34q-56 0 -71 -11t-15 -57v-590h-65l-442 584v-484q0 -46 17 -57t75 -11v-34q-19 0 -58 1t-59 1t-59 -1t-58 -1v34
q58 0 75 11t17 57zM252 764h-33q8 46 37.5 78t74.5 32q31 0 84 -28q42 -21 58 -20q21 1 35.5 17t18.5 34h34q-27 -112 -112 -112q-28 0 -92 30q-39 17 -51 17q-19 0 -35 -12t-19 -36z"/>
            <glyph glyph-name="Ograve" unicode="&#xd2;" horiz-adv-x="778"
                   d="M386 -10q-191 0 -266.5 82.5t-75.5 275.5t75 275t267 82t267 -82t75 -275q0 -98 -15 -162.5t-54 -110t-105 -65.5t-168 -20zM386 670q-58 0 -102 -18t-69.5 -46.5t-41.5 -72t-21.5 -87t-5.5 -98.5q0 -70 9.5 -122.5t34.5 -100.5t74.5 -74t121.5 -26t121.5 26t74.5 74
t34.5 100.5t9.5 122.5q0 55 -5.5 98.5t-21.5 87t-41.5 72t-69.5 46.5t-102 18zM466 739h-46l-157 104q-24 13 -26 32.5t11 27.5q8 15 26.5 16t40.5 -22z"/>
            <glyph glyph-name="Oacute" unicode="&#xd3;" horiz-adv-x="778"
                   d="M386 -10q-191 0 -266.5 82.5t-75.5 275.5t75 275t267 82t267 -82t75 -275q0 -98 -15 -162.5t-54 -110t-105 -65.5t-168 -20zM386 670q-58 0 -102 -18t-69.5 -46.5t-41.5 -72t-21.5 -87t-5.5 -98.5q0 -70 9.5 -122.5t34.5 -100.5t74.5 -74t121.5 -26t121.5 26t74.5 74
t34.5 100.5t9.5 122.5q0 55 -5.5 98.5t-21.5 87t-41.5 72t-69.5 46.5t-102 18zM359 739h-46l151 158q22 23 40.5 22t26.5 -16q13 -8 11 -27.5t-26 -32.5z"/>
            <glyph glyph-name="Ocircumflex" unicode="&#xd4;" horiz-adv-x="778"
                   d="M386 -10q-191 0 -266.5 82.5t-75.5 275.5t75 275t267 82t267 -82t75 -275q0 -98 -15 -162.5t-54 -110t-105 -65.5t-168 -20zM386 670q-58 0 -102 -18t-69.5 -46.5t-41.5 -72t-21.5 -87t-5.5 -98.5q0 -70 9.5 -122.5t34.5 -100.5t74.5 -74t121.5 -26t121.5 26t74.5 74
t34.5 100.5t9.5 122.5q0 55 -5.5 98.5t-21.5 87t-41.5 72t-69.5 46.5t-102 18zM424 908l124 -169h-43l-115 103l-116 -103h-43l124 169h69z"/>
            <glyph glyph-name="Otilde" unicode="&#xd5;" horiz-adv-x="778"
                   d="M386 -10q-191 0 -266.5 82.5t-75.5 275.5t75 275t267 82t267 -82t75 -275q0 -98 -15 -162.5t-54 -110t-105 -65.5t-168 -20zM386 670q-58 0 -102 -18t-69.5 -46.5t-41.5 -72t-21.5 -87t-5.5 -98.5q0 -70 9.5 -122.5t34.5 -100.5t74.5 -74t121.5 -26t121.5 26t74.5 74
t34.5 100.5t9.5 122.5q0 55 -5.5 98.5t-21.5 87t-41.5 72t-69.5 46.5t-102 18zM252 764h-33q8 46 37.5 78t74.5 32q31 0 84 -28q42 -21 58 -20q21 1 35.5 17t18.5 34h34q-27 -112 -112 -112q-28 0 -92 30q-39 17 -51 17q-19 0 -35 -12t-19 -36z"/>
            <glyph glyph-name="Odieresis" unicode="&#xd6;" horiz-adv-x="778"
                   d="M386 -10q-191 0 -266.5 82.5t-75.5 275.5t75 275t267 82t267 -82t75 -275q0 -98 -15 -162.5t-54 -110t-105 -65.5t-168 -20zM386 670q-58 0 -102 -18t-69.5 -46.5t-41.5 -72t-21.5 -87t-5.5 -98.5q0 -70 9.5 -122.5t34.5 -100.5t74.5 -74t121.5 -26t121.5 26t74.5 74
t34.5 100.5t9.5 122.5q0 55 -5.5 98.5t-21.5 87t-41.5 72t-69.5 46.5t-102 18zM288 788q-22 0 -37.5 16t-15.5 37q0 22 15.5 38t37.5 16t37.5 -16t15.5 -38q0 -21 -15.5 -37t-37.5 -16zM492 895q21 0 37 -16.5t16 -37.5t-16 -37t-37 -16t-37.5 16t-16.5 37q0 22 16 38t38 16
z"/>
            <glyph glyph-name="multiply" unicode="&#xd7;" horiz-adv-x="606"
                   d="M257 253l-176 176l45 45l177 -176l176 177l45 -45l-176 -177l178 -178l-46 -45l-177 178l-178 -177l-45 45z"/>
            <glyph glyph-name="Oslash" unicode="&#xd8;" horiz-adv-x="778"
                   d="M184 137l385 454q-57 80 -183 80q-72 0 -121.5 -26t-74.5 -74t-34.5 -100.5t-9.5 -122.5q0 -138 38 -211zM589 557l-384 -454q59 -78 181 -78q72 0 121.5 26t74.5 74t34.5 100.5t9.5 122.5q0 135 -37 209zM620 651l79 93l30 -22l-81 -96q48 -51 64 -119t16 -159
q0 -98 -15 -162.5t-54 -110t-105 -65.5t-168 -20q-75 0 -131.5 10t-100.5 43l-86 -102l-27 27l85 100q-49 51 -65.5 120t-16.5 160q0 193 75 275t267 82q53 0 84.5 -2t75.5 -14.5t74 -37.5z"/>
            <glyph glyph-name="Ugrave" unicode="&#xd9;" horiz-adv-x="778"
                   d="M210 590v-365q-2 -101 44 -150t147 -49q112 0 164.5 50t52.5 164v350q0 34 -5 45.5t-26.5 17t-76.5 5.5v34q21 0 62.5 -1t61.5 -1q21 0 62.5 1t61.5 1v-34q-45 0 -64.5 -7.5t-22.5 -18.5t-3 -42v-349q0 -140 -73 -195.5t-225 -55.5q-250 0 -250 224v376q0 31 -3 42
t-22.5 18.5t-65.5 7.5v34q22 -1 67.5 -1.5t68.5 -0.5t70 1t71 1v-34q-30 0 -47.5 -2.5t-28 -5.5t-14.5 -13.5t-5 -18.5t-1 -28zM466 739h-46l-157 104q-24 13 -26 32.5t11 27.5q8 15 26.5 16t40.5 -22z"/>
            <glyph glyph-name="Uacute" unicode="&#xda;" horiz-adv-x="778"
                   d="M210 590v-365q-2 -101 44 -150t147 -49q112 0 164.5 50t52.5 164v350q0 34 -5 45.5t-26.5 17t-76.5 5.5v34q21 0 62.5 -1t61.5 -1q21 0 62.5 1t61.5 1v-34q-45 0 -64.5 -7.5t-22.5 -18.5t-3 -42v-349q0 -140 -73 -195.5t-225 -55.5q-250 0 -250 224v376q0 31 -3 42
t-22.5 18.5t-65.5 7.5v34q22 -1 67.5 -1.5t68.5 -0.5t70 1t71 1v-34q-30 0 -47.5 -2.5t-28 -5.5t-14.5 -13.5t-5 -18.5t-1 -28zM379 739h-46l151 158q22 23 40.5 22t26.5 -16q13 -8 11 -27.5t-26 -32.5z"/>
            <glyph glyph-name="Ucircumflex" unicode="&#xdb;" horiz-adv-x="778"
                   d="M210 590v-365q-2 -101 44 -150t147 -49q112 0 164.5 50t52.5 164v350q0 34 -5 45.5t-26.5 17t-76.5 5.5v34q21 0 62.5 -1t61.5 -1q21 0 62.5 1t61.5 1v-34q-45 0 -64.5 -7.5t-22.5 -18.5t-3 -42v-349q0 -140 -73 -195.5t-225 -55.5q-250 0 -250 224v376q0 31 -3 42
t-22.5 18.5t-65.5 7.5v34q22 -1 67.5 -1.5t68.5 -0.5t70 1t71 1v-34q-30 0 -47.5 -2.5t-28 -5.5t-14.5 -13.5t-5 -18.5t-1 -28zM424 908l124 -169h-43l-115 103l-116 -103h-43l124 169h69z"/>
            <glyph glyph-name="Udieresis" unicode="&#xdc;" horiz-adv-x="778"
                   d="M210 590v-365q-2 -101 44 -150t147 -49q112 0 164.5 50t52.5 164v350q0 34 -5 45.5t-26.5 17t-76.5 5.5v34q21 0 62.5 -1t61.5 -1q21 0 62.5 1t61.5 1v-34q-45 0 -64.5 -7.5t-22.5 -18.5t-3 -42v-349q0 -140 -73 -195.5t-225 -55.5q-250 0 -250 224v376q0 31 -3 42
t-22.5 18.5t-65.5 7.5v34q22 -1 67.5 -1.5t68.5 -0.5t70 1t71 1v-34q-30 0 -47.5 -2.5t-28 -5.5t-14.5 -13.5t-5 -18.5t-1 -28zM288 788q-22 0 -37.5 16t-15.5 37q0 22 15.5 38t37.5 16t37.5 -16t15.5 -38q0 -21 -15.5 -37t-37.5 -16zM492 895q21 0 37 -16.5t16 -37.5
t-16 -37t-37 -16t-37.5 16t-16.5 37q0 22 16 38t38 16z"/>
            <glyph glyph-name="Yacute" unicode="&#xdd;" horiz-adv-x="722"
                   d="M292 341l-95 151q-12 18 -31.5 49.5t-27.5 43t-22.5 29.5t-26 24.5t-29 13t-39.5 8.5v32q25 0 74.5 -1t73.5 -1q25 0 74 1t73 1v-32q-5 0 -17 -1t-17 -1.5t-14 -1.5t-13.5 -3t-10 -5.5t-8.5 -9t-4 -12.5q0 -6 -0.5 -8.5t2 -8t3.5 -7t4.5 -7t4.5 -6.5l151 -249l137 240
q19 28 18 46q0 34 -71 34v32q18 0 54 -1t54 -1t54 1t54 1v-32q-19 -2 -33.5 -7.5t-24.5 -11.5t-20.5 -19.5t-16 -22t-17 -28t-17.5 -29.5l-140 -222q-21 -33 -21 -66v-154q0 -47 18 -57.5t84 -10.5v-34q-26 0 -74.5 0.5t-72.5 1.5q-24 -1 -72.5 -1.5t-74.5 -0.5v34
q66 0 84 10.5t18 57.5v158q0 31 -4 44t-21 39zM351 739h-46l151 158q22 23 40.5 22t26.5 -16q13 -8 11 -27.5t-26 -32.5z"/>
            <glyph glyph-name="Thorn" unicode="&#xde;" horiz-adv-x="611"
                   d="M19 -2v34q30 0 47.5 2.5t28 5.5t14.5 13.5t5 18.5t1 28v490q0 20 -1 28t-5 18.5t-14.5 13.5t-28 5.5t-47.5 2.5v34q23 0 70 -1t71 -1q23 0 70 1t71 1v-34q-60 0 -78 -10.5t-18 -57.5v-53q108 0 162 1q101 2 149.5 -36.5t48.5 -138.5q0 -68 -18 -111.5t-57 -64.5
t-82 -27.5t-111 -6.5h-92v-53q0 -20 1 -28t5 -18.5t14.5 -13.5t28 -5.5t47.5 -2.5v-34q-23 0 -70.5 1t-70.5 1q-24 0 -71 -1t-70 -1zM205 503v-314h49q45 0 71 2t56.5 10t46 24.5t26.5 46.5t11 74q0 54 -8.5 85.5t-31 47.5t-48.5 20t-74 4h-98z"/>
            <glyph glyph-name="germandbls" unicode="&#xdf;" horiz-adv-x="556"
                   d="M262 429v31q65 9 86.5 37.5t21.5 93.5q0 59 -20.5 90t-76.5 31q-53 0 -72 -31t-21 -89v-492q0 -42 10.5 -56t49.5 -14v-32q-6 0 -21 0.5t-39 1t-41 0.5q-20 0 -61 -0.5t-58 -1.5v32q49 -1 63.5 14.5t14.5 55.5v474q0 90 47 130.5t140 40.5q74 0 120 -35.5t46 -107.5
q0 -57 -21.5 -88.5t-74.5 -61.5q93 -20 123 -61t30 -139q0 -37 -1 -58t-4.5 -57t-13 -57.5t-25 -44.5t-42 -34t-62.5 -11q-69 0 -108 40l30 66l13 -4q-3 -27 14 -49.5t50 -22.5q11 0 20.5 6t16 17.5t11 24.5t7 30.5t4.5 32t2 33t0.5 29.5t0 25t-0.5 16q0 65 -7 103
t-29.5 56.5t-39 23t-60.5 9.5l-7.5 1.5t-6.5 1t-8 0.5z"/>
            <glyph glyph-name="agrave" unicode="&#xe0;" horiz-adv-x="500"
                   d="M324 232h-55q-36 0 -57.5 -3t-43 -12.5t-31 -31t-9.5 -56.5q0 -101 86 -101q64 0 87 24t23 84v96zM324 265v101q0 75 -93 75q-59 0 -75 -22t-16 -75q0 -26 -43 -26q-38 1 -31 51q13 106 177 106q90 0 126.5 -35t36.5 -122v-218q0 -46 12.5 -56.5t66.5 -13.5v-32
q-11 1 -38.5 1.5t-40.5 0.5t-39 -1t-39 -1v40q-52 -47 -125 -47q-81 0 -121 31.5t-40 108.5q0 28 8.5 50.5t19.5 36.5t33 24t38 14.5t46 7t46 2.5t48 -0.5t43 -0.5zM327 524h-46l-157 104q-24 13 -26 32.5t11 27.5q8 15 26.5 16t40.5 -22z"/>
            <glyph glyph-name="aacute" unicode="&#xe1;" horiz-adv-x="500"
                   d="M324 232h-55q-36 0 -57.5 -3t-43 -12.5t-31 -31t-9.5 -56.5q0 -101 86 -101q64 0 87 24t23 84v96zM324 265v101q0 75 -93 75q-59 0 -75 -22t-16 -75q0 -26 -43 -26q-38 1 -31 51q13 106 177 106q90 0 126.5 -35t36.5 -122v-218q0 -46 12.5 -56.5t66.5 -13.5v-32
q-11 1 -38.5 1.5t-40.5 0.5t-39 -1t-39 -1v40q-52 -47 -125 -47q-81 0 -121 31.5t-40 108.5q0 28 8.5 50.5t19.5 36.5t33 24t38 14.5t46 7t46 2.5t48 -0.5t43 -0.5zM220 524h-46l151 158q22 23 40.5 22t26.5 -16q13 -8 11 -27.5t-26 -32.5z"/>
            <glyph glyph-name="acircumflex" unicode="&#xe2;" horiz-adv-x="500"
                   d="M324 232h-55q-36 0 -57.5 -3t-43 -12.5t-31 -31t-9.5 -56.5q0 -101 86 -101q64 0 87 24t23 84v96zM324 265v101q0 75 -93 75q-59 0 -75 -22t-16 -75q0 -26 -43 -26q-38 1 -31 51q13 106 177 106q90 0 126.5 -35t36.5 -122v-218q0 -46 12.5 -56.5t66.5 -13.5v-32
q-11 1 -38.5 1.5t-40.5 0.5t-39 -1t-39 -1v40q-52 -47 -125 -47q-81 0 -121 31.5t-40 108.5q0 28 8.5 50.5t19.5 36.5t33 24t38 14.5t46 7t46 2.5t48 -0.5t43 -0.5zM285 693l124 -169h-43l-115 103l-116 -103h-43l124 169h69z"/>
            <glyph glyph-name="atilde" unicode="&#xe3;" horiz-adv-x="500"
                   d="M324 232h-55q-36 0 -57.5 -3t-43 -12.5t-31 -31t-9.5 -56.5q0 -101 86 -101q64 0 87 24t23 84v96zM324 265v101q0 75 -93 75q-59 0 -75 -22t-16 -75q0 -26 -43 -26q-38 1 -31 51q13 106 177 106q90 0 126.5 -35t36.5 -122v-218q0 -46 12.5 -56.5t66.5 -13.5v-32
q-11 1 -38.5 1.5t-40.5 0.5t-39 -1t-39 -1v40q-52 -47 -125 -47q-81 0 -121 31.5t-40 108.5q0 28 8.5 50.5t19.5 36.5t33 24t38 14.5t46 7t46 2.5t48 -0.5t43 -0.5zM113 549h-33q8 46 37.5 78t74.5 32q31 0 84 -28q42 -21 58 -20q21 1 35.5 17t18.5 34h34
q-27 -112 -112 -112q-28 0 -92 30q-39 17 -51 17q-19 0 -35 -12t-19 -36z"/>
            <glyph glyph-name="adieresis" unicode="&#xe4;" horiz-adv-x="500"
                   d="M324 232h-55q-36 0 -57.5 -3t-43 -12.5t-31 -31t-9.5 -56.5q0 -101 86 -101q64 0 87 24t23 84v96zM324 265v101q0 75 -93 75q-59 0 -75 -22t-16 -75q0 -26 -43 -26q-38 1 -31 51q13 106 177 106q90 0 126.5 -35t36.5 -122v-218q0 -46 12.5 -56.5t66.5 -13.5v-32
q-11 1 -38.5 1.5t-40.5 0.5t-39 -1t-39 -1v40q-52 -47 -125 -47q-81 0 -121 31.5t-40 108.5q0 28 8.5 50.5t19.5 36.5t33 24t38 14.5t46 7t46 2.5t48 -0.5t43 -0.5zM353 680q21 0 37 -16.5t16 -37.5t-16 -37t-37 -16t-37.5 16t-16.5 37q0 22 16 38t38 16zM149 573
q-22 0 -37.5 16t-15.5 37q0 22 15.5 38t37.5 16t37.5 -16t15.5 -38q0 -21 -15.5 -37t-37.5 -16z"/>
            <glyph glyph-name="aring" unicode="&#xe5;" horiz-adv-x="500"
                   d="M324 232h-55q-36 0 -57.5 -3t-43 -12.5t-31 -31t-9.5 -56.5q0 -101 86 -101q64 0 87 24t23 84v96zM324 265v101q0 75 -93 75q-59 0 -75 -22t-16 -75q0 -26 -43 -26q-38 1 -31 51q13 106 177 106q90 0 126.5 -35t36.5 -122v-218q0 -46 12.5 -56.5t66.5 -13.5v-32
q-11 1 -38.5 1.5t-40.5 0.5t-39 -1t-39 -1v40q-52 -47 -125 -47q-81 0 -121 31.5t-40 108.5q0 28 8.5 50.5t19.5 36.5t33 24t38 14.5t46 7t46 2.5t48 -0.5t43 -0.5zM351 626q0 -41 -29.5 -71t-71.5 -30t-71.5 30t-29.5 71q0 42 29.5 71.5t71.5 29.5t71.5 -29.5t29.5 -71.5z
M190 626q0 -24 18 -42t42 -18t42 18t18 42q0 25 -18 42.5t-42 17.5t-42 -17.5t-18 -42.5z"/>
            <glyph glyph-name="ae" unicode="&#xe6;" horiz-adv-x="778"
                   d="M407 265h225q0 25 -0.5 37.5t-2.5 35t-6 34.5t-12 27.5t-19.5 23.5t-29 14t-40.5 6q-47 0 -75 -27.5t-35.5 -65t-4.5 -85.5zM326 265v100q0 75 -93 75q-58 0 -74.5 -21.5t-16.5 -74.5q0 -26 -43 -26q-38 1 -29 59q6 34 35 57t64.5 32t75.5 9q96 0 136 -53q50 53 138 53
q120 0 163 -58.5t43 -185.5h-318q0 -49 3.5 -81.5t15.5 -64.5t38 -48t66 -16q63 0 86.5 26t34.5 90q2 21 35 21q11 0 17 -0.5t11.5 -6t3.5 -15.5q-6 -65 -54 -105.5t-126 -40.5q-135 -3 -182 77q-19 -35 -63 -55.5t-88 -20.5q-161 -1 -161 139q0 29 8.5 51t19.5 36.5
t33 24.5t38 14.5t46 7t46 2.5t48 -0.5t43 -0.5zM326 135v96h-55q-36 0 -57.5 -3t-43 -12.5t-31 -31t-9.5 -56.5q0 -100 86 -100q63 0 86.5 23.5t23.5 83.5z"/>
            <glyph glyph-name="ccedilla" unicode="&#xe7;" horiz-adv-x="500"
                   d="M398 146h50v-117q-77 -39 -184 -39h-6l-16 -46q49 10 79.5 -8.5t32.5 -57.5q2 -40 -41.5 -64.5t-80.5 -19.5q-44 0 -86 16l16 30q35 -9 59 -10q23 -1 40 10.5t18 35.5q1 23 -22 31.5t-59 -2.5l-7 6l34 81q-101 9 -140 67t-39 176q0 123 51 181.5t172 58.5
q49 0 101.5 -10.5t77.5 -35.5v-106h-52q-1 6 -2.5 25t-3.5 28t-9 24.5t-18 23t-31.5 13.5t-49.5 6q-48 0 -79 -16t-45 -48t-18.5 -64t-4.5 -80q0 -38 2 -65t11 -57t24 -48.5t43.5 -30.5t67.5 -12q18 0 32.5 1.5t25.5 6t19 7.5t13.5 12t9 14t6 18t3.5 18.5t3 22.5t3 24z"/>
            <glyph glyph-name="egrave" unicode="&#xe8;" horiz-adv-x="500"
                   d="M137 265h229q10 178 -114 178q-119 0 -115 -178zM457 231h-320q0 -26 0.5 -40.5t3 -39.5t7 -40t14 -33.5t22.5 -29t34 -17.5t47 -7q22 0 39 3.5t28.5 12t19.5 15.5t13.5 21t8 21.5t6 24t4.5 20.5q0 16 34 16q10 0 15 -0.5t10.5 -4.5t5.5 -12q-22 -151 -198 -151
q-61 0 -102.5 20t-63 58.5t-30 83.5t-8.5 107q0 103 56.5 159.5t158.5 56.5q207 0 195 -244zM327 524h-46l-157 104q-24 13 -26 32.5t11 27.5q8 15 26.5 16t40.5 -22z"/>
            <glyph glyph-name="eacute" unicode="&#xe9;" horiz-adv-x="500"
                   d="M137 265h229q10 178 -114 178q-119 0 -115 -178zM457 231h-320q0 -26 0.5 -40.5t3 -39.5t7 -40t14 -33.5t22.5 -29t34 -17.5t47 -7q22 0 39 3.5t28.5 12t19.5 15.5t13.5 21t8 21.5t6 24t4.5 20.5q0 16 34 16q10 0 15 -0.5t10.5 -4.5t5.5 -12q-22 -151 -198 -151
q-61 0 -102.5 20t-63 58.5t-30 83.5t-8.5 107q0 103 56.5 159.5t158.5 56.5q207 0 195 -244zM220 524h-46l151 158q22 23 40.5 22t26.5 -16q13 -8 11 -27.5t-26 -32.5z"/>
            <glyph glyph-name="ecircumflex" unicode="&#xea;" horiz-adv-x="500"
                   d="M137 265h229q10 178 -114 178q-119 0 -115 -178zM457 231h-320q0 -26 0.5 -40.5t3 -39.5t7 -40t14 -33.5t22.5 -29t34 -17.5t47 -7q22 0 39 3.5t28.5 12t19.5 15.5t13.5 21t8 21.5t6 24t4.5 20.5q0 16 34 16q10 0 15 -0.5t10.5 -4.5t5.5 -12q-22 -151 -198 -151
q-61 0 -102.5 20t-63 58.5t-30 83.5t-8.5 107q0 103 56.5 159.5t158.5 56.5q207 0 195 -244zM285 693l124 -169h-43l-115 103l-116 -103h-43l124 169h69z"/>
            <glyph glyph-name="edieresis" unicode="&#xeb;" horiz-adv-x="500"
                   d="M137 265h229q10 178 -114 178q-119 0 -115 -178zM457 231h-320q0 -26 0.5 -40.5t3 -39.5t7 -40t14 -33.5t22.5 -29t34 -17.5t47 -7q22 0 39 3.5t28.5 12t19.5 15.5t13.5 21t8 21.5t6 24t4.5 20.5q0 16 34 16q10 0 15 -0.5t10.5 -4.5t5.5 -12q-22 -151 -198 -151
q-61 0 -102.5 20t-63 58.5t-30 83.5t-8.5 107q0 103 56.5 159.5t158.5 56.5q207 0 195 -244zM149 573q-22 0 -37.5 16t-15.5 37q0 22 15.5 38t37.5 16t37.5 -16t15.5 -38q0 -21 -15.5 -37t-37.5 -16zM353 680q21 0 37 -16.5t16 -37.5t-16 -37t-37 -16t-37.5 16t-16.5 37
q0 22 16 38t38 16z"/>
            <glyph glyph-name="igrave" unicode="&#xec;"
                   d="M207 465v-365q0 -45 14 -57.5t75 -12.5v-32q-22 1 -65 1.5t-65 0.5t-65 -0.5t-65 -1.5v32q61 0 75 12.5t14 57.5v263q0 47 -13 56.5t-76 14.5v31h171zM243 524h-46l-157 104q-24 13 -26 32.5t11 27.5q8 15 26.5 16t40.5 -22z"/>
            <glyph glyph-name="iacute" unicode="&#xed;"
                   d="M207 465v-365q0 -45 14 -57.5t75 -12.5v-32q-22 1 -65 1.5t-65 0.5t-65 -0.5t-65 -1.5v32q61 0 75 12.5t14 57.5v263q0 47 -13 56.5t-76 14.5v31h171zM136 524h-46l151 158q22 23 40.5 22t26.5 -16q13 -8 11 -27.5t-26 -32.5z"/>
            <glyph glyph-name="icircumflex" unicode="&#xee;"
                   d="M207 465v-365q0 -45 14 -57.5t75 -12.5v-32q-22 1 -65 1.5t-65 0.5t-65 -0.5t-65 -1.5v32q61 0 75 12.5t14 57.5v263q0 47 -13 56.5t-76 14.5v31h171zM201 693l124 -169h-43l-115 103l-116 -103h-43l124 169h69z"/>
            <glyph glyph-name="idieresis" unicode="&#xef;"
                   d="M207 465v-365q0 -45 14 -57.5t75 -12.5v-32q-22 1 -65 1.5t-65 0.5t-65 -0.5t-65 -1.5v32q61 0 75 12.5t14 57.5v263q0 47 -13 56.5t-76 14.5v31h171zM65 573q-22 0 -37.5 16t-15.5 37q0 22 15.5 38t37.5 16t37.5 -16t15.5 -38q0 -21 -15.5 -37t-37.5 -16zM269 680
q21 0 37 -16.5t16 -37.5t-16 -37t-37 -16t-37.5 16t-16.5 37q0 22 16 38t38 16z"/>
            <glyph glyph-name="eth" unicode="&#xf0;" horiz-adv-x="556"
                   d="M278 441q-38 0 -64.5 -12.5t-40.5 -30.5t-21.5 -48.5t-9 -54.5t-1.5 -62t1.5 -62t9 -55t21.5 -49t40.5 -30.5t64.5 -12.5t64.5 12.5t40.5 30.5t21.5 49t9 55t1.5 62t-1.5 62t-9 54.5t-21.5 48.5t-40.5 30.5t-64.5 12.5zM457 741l36 -30l-129 -67q141 -132 141 -364
q0 -135 -54 -213t-173 -77q-124 1 -175.5 61.5t-51.5 181.5q0 124 55 183t172 59q63 0 113 -28q-17 92 -85 167l-160 -83l-34 31l162 84q-80 66 -153 78l33 21q90 -10 174 -71z"/>
            <glyph glyph-name="ntilde" unicode="&#xf1;" horiz-adv-x="611"
                   d="M189 465v-56q48 39 80 52.5t88 13.5q89 0 116 -40t27 -132v-202q0 -45 13.5 -58t73.5 -13v-32q-21 1 -63.5 1.5t-64.5 0.5q-21 0 -64 -0.5t-63 -1.5v32q59 4 69 11q17 12 17 60v177q0 32 -1 48.5t-6 40t-15.5 35t-30.5 20.5t-49 9q-71 0 -96.5 -37t-25.5 -111v-182
q0 -45 13.5 -58t71.5 -13v-32q-20 1 -62.5 1.5t-63.5 0.5q-22 0 -65 -0.5t-65 -1.5v32q6 0 20.5 1t18 1.5t13.5 1.5t12 2.5t8.5 4t7 6t4 8.5t3.5 11.5t1 15t1 19.5v263q0 48 -13.5 58.5t-75.5 12.5v30h166zM168 549h-33q8 46 37.5 78t74.5 32q31 0 84 -28q42 -21 58 -20
q21 1 35.5 17t18.5 34h34q-27 -112 -112 -112q-28 0 -92 30q-39 17 -51 17q-19 0 -35 -12t-19 -36z"/>
            <glyph glyph-name="ograve" unicode="&#xf2;" horiz-adv-x="556"
                   d="M278 475q117 0 172 -59t55 -183q0 -121 -51.5 -181.5t-175.5 -61.5q-124 1 -175.5 61.5t-51.5 181.5q0 124 55 183t172 59zM278 441q-38 0 -64.5 -12.5t-40.5 -30.5t-21.5 -48.5t-9 -54.5t-1.5 -62t1.5 -62t9 -55t21.5 -49t40.5 -30.5t64.5 -12.5t64.5 12.5t40.5 30.5
t21.5 49t9 55t1.5 62t-1.5 62t-9 54.5t-21.5 48.5t-40.5 30.5t-64.5 12.5zM355 524h-46l-157 104q-24 13 -26 32.5t11 27.5q8 15 26.5 16t40.5 -22z"/>
            <glyph glyph-name="oacute" unicode="&#xf3;" horiz-adv-x="556"
                   d="M278 475q117 0 172 -59t55 -183q0 -121 -51.5 -181.5t-175.5 -61.5q-124 1 -175.5 61.5t-51.5 181.5q0 124 55 183t172 59zM278 441q-38 0 -64.5 -12.5t-40.5 -30.5t-21.5 -48.5t-9 -54.5t-1.5 -62t1.5 -62t9 -55t21.5 -49t40.5 -30.5t64.5 -12.5t64.5 12.5t40.5 30.5
t21.5 49t9 55t1.5 62t-1.5 62t-9 54.5t-21.5 48.5t-40.5 30.5t-64.5 12.5zM248 524h-46l151 158q22 23 40.5 22t26.5 -16q13 -8 11 -27.5t-26 -32.5z"/>
            <glyph glyph-name="ocircumflex" unicode="&#xf4;" horiz-adv-x="556"
                   d="M278 475q117 0 172 -59t55 -183q0 -121 -51.5 -181.5t-175.5 -61.5q-124 1 -175.5 61.5t-51.5 181.5q0 124 55 183t172 59zM278 441q-38 0 -64.5 -12.5t-40.5 -30.5t-21.5 -48.5t-9 -54.5t-1.5 -62t1.5 -62t9 -55t21.5 -49t40.5 -30.5t64.5 -12.5t64.5 12.5t40.5 30.5
t21.5 49t9 55t1.5 62t-1.5 62t-9 54.5t-21.5 48.5t-40.5 30.5t-64.5 12.5zM313 693l124 -169h-43l-115 103l-116 -103h-43l124 169h69z"/>
            <glyph glyph-name="otilde" unicode="&#xf5;" horiz-adv-x="556"
                   d="M278 475q117 0 172 -59t55 -183q0 -121 -51.5 -181.5t-175.5 -61.5q-124 1 -175.5 61.5t-51.5 181.5q0 124 55 183t172 59zM278 441q-38 0 -64.5 -12.5t-40.5 -30.5t-21.5 -48.5t-9 -54.5t-1.5 -62t1.5 -62t9 -55t21.5 -49t40.5 -30.5t64.5 -12.5t64.5 12.5t40.5 30.5
t21.5 49t9 55t1.5 62t-1.5 62t-9 54.5t-21.5 48.5t-40.5 30.5t-64.5 12.5zM141 549h-33q8 46 37.5 78t74.5 32q31 0 84 -28q42 -21 58 -20q21 1 35.5 17t18.5 34h34q-27 -112 -112 -112q-28 0 -92 30q-39 17 -51 17q-19 0 -35 -12t-19 -36z"/>
            <glyph glyph-name="odieresis" unicode="&#xf6;" horiz-adv-x="556"
                   d="M278 475q117 0 172 -59t55 -183q0 -121 -51.5 -181.5t-175.5 -61.5q-124 1 -175.5 61.5t-51.5 181.5q0 124 55 183t172 59zM278 441q-38 0 -64.5 -12.5t-40.5 -30.5t-21.5 -48.5t-9 -54.5t-1.5 -62t1.5 -62t9 -55t21.5 -49t40.5 -30.5t64.5 -12.5t64.5 12.5t40.5 30.5
t21.5 49t9 55t1.5 62t-1.5 62t-9 54.5t-21.5 48.5t-40.5 30.5t-64.5 12.5zM177 573q-22 0 -37.5 16t-15.5 37q0 22 15.5 38t37.5 16t37.5 -16t15.5 -38q0 -21 -15.5 -37t-37.5 -16zM381 680q21 0 37 -16.5t16 -37.5t-16 -37t-37 -16t-37.5 16t-16.5 37q0 22 16 38t38 16z
"/>
            <glyph glyph-name="divide" unicode="&#xf7;" horiz-adv-x="606"
                   d="M51 221v64h504v-64h-504zM303 397q-22 0 -37.5 16t-15.5 37q0 22 15.5 38t37.5 16t37.5 -16t15.5 -38q0 -21 -15.5 -37t-37.5 -16zM303 2q-22 0 -37.5 16t-15.5 37q0 22 15.5 38t37.5 16t37.5 -16t15.5 -38q0 -21 -15.5 -37t-37.5 -16z"/>
            <glyph glyph-name="oslash" unicode="&#xf8;" horiz-adv-x="556"
                   d="M521 511l-75 -91q59 -59 59 -187q0 -121 -51.5 -181.5t-175.5 -61.5q-99 1 -152 41l-74 -91l-29 24l76 92q-48 56 -48 177q0 124 55 183t172 59q87 0 139 -32l75 91zM151 120l230 279q-31 42 -103 42q-38 0 -64.5 -12.5t-40.5 -30.5t-21.5 -48.5t-9 -54.5t-1.5 -62
q0 -75 10 -113zM400 364l-233 -284q30 -56 111 -56q38 0 64.5 12.5t40.5 30.5t21.5 49t9 55t1.5 62q0 91 -15 131z"/>
            <glyph glyph-name="ugrave" unicode="&#xf9;" horiz-adv-x="611"
                   d="M413 -2v58q-22 -29 -69 -47.5t-86 -18.5q-73 0 -111.5 28t-38.5 98v249q0 45 -14 57.5t-75 12.5v30h171v-296q0 -35 2.5 -55.5t12 -41.5t31 -30.5t55.5 -9.5t57.5 9.5t36 23t19 38.5t8 45.5t1.5 54.5v162q0 44 -13.5 57t-70.5 13v30h166v-365q0 -45 14 -57.5t75 -12.5
v-32q-15 0 -45 0.5t-45 1.5q-14 0 -40.5 -1t-40.5 -1zM382 524h-46l-157 104q-24 13 -26 32.5t11 27.5q8 15 26.5 16t40.5 -22z"/>
            <glyph glyph-name="uacute" unicode="&#xfa;" horiz-adv-x="611"
                   d="M413 -2v58q-22 -29 -69 -47.5t-86 -18.5q-73 0 -111.5 28t-38.5 98v249q0 45 -14 57.5t-75 12.5v30h171v-296q0 -35 2.5 -55.5t12 -41.5t31 -30.5t55.5 -9.5t57.5 9.5t36 23t19 38.5t8 45.5t1.5 54.5v162q0 44 -13.5 57t-70.5 13v30h166v-365q0 -45 14 -57.5t75 -12.5
v-32q-15 0 -45 0.5t-45 1.5q-14 0 -40.5 -1t-40.5 -1zM275 524h-46l151 158q22 23 40.5 22t26.5 -16q13 -8 11 -27.5t-26 -32.5z"/>
            <glyph glyph-name="ucircumflex" unicode="&#xfb;" horiz-adv-x="611"
                   d="M413 -2v58q-22 -29 -69 -47.5t-86 -18.5q-73 0 -111.5 28t-38.5 98v249q0 45 -14 57.5t-75 12.5v30h171v-296q0 -35 2.5 -55.5t12 -41.5t31 -30.5t55.5 -9.5t57.5 9.5t36 23t19 38.5t8 45.5t1.5 54.5v162q0 44 -13.5 57t-70.5 13v30h166v-365q0 -45 14 -57.5t75 -12.5
v-32q-15 0 -45 0.5t-45 1.5q-14 0 -40.5 -1t-40.5 -1zM340 693l124 -169h-43l-115 103l-116 -103h-43l124 169h69z"/>
            <glyph glyph-name="udieresis" unicode="&#xfc;" horiz-adv-x="611"
                   d="M413 -2v58q-22 -29 -69 -47.5t-86 -18.5q-73 0 -111.5 28t-38.5 98v249q0 45 -14 57.5t-75 12.5v30h171v-296q0 -35 2.5 -55.5t12 -41.5t31 -30.5t55.5 -9.5t57.5 9.5t36 23t19 38.5t8 45.5t1.5 54.5v162q0 44 -13.5 57t-70.5 13v30h166v-365q0 -45 14 -57.5t75 -12.5
v-32q-15 0 -45 0.5t-45 1.5q-14 0 -40.5 -1t-40.5 -1zM204 573q-22 0 -37.5 16t-15.5 37q0 22 15.5 38t37.5 16t37.5 -16t15.5 -38q0 -21 -15.5 -37t-37.5 -16zM408 680q21 0 37 -16.5t16 -37.5t-16 -37t-37 -16t-37.5 16t-16.5 37q0 22 16 38t38 16z"/>
            <glyph glyph-name="yacute" unicode="&#xfd;" horiz-adv-x="556"
                   d="M250 0l-127 346q-3 8 -9.5 24t-8.5 20.5t-7 15t-7.5 12.5t-8.5 7.5t-10.5 6t-13.5 3t-18.5 2.5h-23.5v30q20 -1 59.5 -1t59.5 -1q19 1 59 1t59 1v-30q-2 0 -13 -1t-16.5 -2t-14.5 -3.5t-13 -7.5t-5 -13q-1 -4 3 -18l118 -326l110 313q6 13 6 23q0 6 -1 11.5t-5 9t-7 6
t-9.5 4t-10.5 2.5t-11.5 1.5t-10.5 0.5h-11h-9v30q15 -1 46 -1t46 -1q15 1 45.5 1t45.5 1v-30q-34 -3 -48 -21.5t-35 -73.5l-133 -339q-3 -9 -18 -50t-22.5 -59t-25.5 -51.5t-35 -49.5t-44 -29.5t-58 -13.5q-71 0 -81 57q-2 9 1.5 20t9.5 15q15 12 30.5 7.5t24.5 -13.5
t23 -20t27 -14q15 -3 29 3.5t25.5 22t21.5 32t19 39.5t14.5 39t12 36.5t8.5 25.5h-32zM248 524h-46l151 158q22 23 40.5 22t26.5 -16q13 -8 11 -27.5t-26 -32.5z"/>
            <glyph glyph-name="thorn" unicode="&#xfe;" horiz-adv-x="611"
                   d="M200 317v-178q0 -52 33 -82t86 -30q33 0 57.5 7.5t39 24t24 33.5t13.5 45t5 48.5t1 53.5q0 43 -4.5 73.5t-17.5 61.5t-41 47t-71 16q-58 0 -91.5 -32.5t-33.5 -87.5zM303 -220v-32q-26 0 -73 0.5t-70 1.5q-22 0 -65 -0.5t-65 -1.5v32q60 4 70 9q18 13 18 61v793
q0 45 -14 57.5t-74 12.5v32h170v-340h2q44 70 151 70q196 0 196 -235q0 -124 -52 -187t-172 -63q-64 0 -125 51v-191q0 -48 17.5 -59t85.5 -11z"/>
            <glyph glyph-name="ydieresis" unicode="&#xff;" horiz-adv-x="556"
                   d="M250 0l-127 346q-3 8 -9.5 24t-8.5 20.5t-7 15t-7.5 12.5t-8.5 7.5t-10.5 6t-13.5 3t-18.5 2.5h-23.5v30q20 -1 59.5 -1t59.5 -1q19 1 59 1t59 1v-30q-2 0 -13 -1t-16.5 -2t-14.5 -3.5t-13 -7.5t-5 -13q-1 -4 3 -18l118 -326l110 313q6 13 6 23q0 6 -1 11.5t-5 9t-7 6
t-9.5 4t-10.5 2.5t-11.5 1.5t-10.5 0.5h-11h-9v30q15 -1 46 -1t46 -1q15 1 45.5 1t45.5 1v-30q-34 -3 -48 -21.5t-35 -73.5l-133 -339q-3 -9 -18 -50t-22.5 -59t-25.5 -51.5t-35 -49.5t-44 -29.5t-58 -13.5q-71 0 -81 57q-2 9 1.5 20t9.5 15q15 12 30.5 7.5t24.5 -13.5
t23 -20t27 -14q15 -3 29 3.5t25.5 22t21.5 32t19 39.5t14.5 39t12 36.5t8.5 25.5h-32zM177 573q-22 0 -37.5 16t-15.5 37q0 22 15.5 38t37.5 16t37.5 -16t15.5 -38q0 -21 -15.5 -37t-37.5 -16zM381 680q21 0 37 -16.5t16 -37.5t-16 -37t-37 -16t-37.5 16t-16.5 37
q0 22 16 38t38 16z"/>
            <glyph glyph-name="dotlessi" unicode="&#x131;"
                   d="M207 465v-365q0 -45 14 -57.5t75 -12.5v-32q-22 1 -65 1.5t-65 0.5t-65 -0.5t-65 -1.5v32q61 0 75 12.5t14 57.5v263q0 47 -13 56.5t-76 14.5v31h171z"/>
            <glyph glyph-name="Lslash" unicode="&#x141;" horiz-adv-x="611"
                   d="M32 0v32q30 0 47.5 2.5t28 5.5t14.5 13.5t5 18.5t1 28v182l-96 -74v48l96 74v260q0 20 -1 28t-5 18.5t-14.5 13.5t-28 5.5t-47.5 2.5v34q23 0 70 -1t71 -1q23 0 70 1t71 1v-34q-48 0 -67.5 -6.5t-24 -18t-4.5 -43.5v-186l142 102v-48l-142 -102v-315h177q76 1 95 27
t30 135h53v-203h-541z"/>
            <glyph glyph-name="lslash" unicode="&#x142;"
                   d="M126 99v283l-89 -74v48l89 74v214q0 45 -14 57t-75 12v32h171v-264l89 68v-48l-89 -67v-334q0 -45 14 -57.5t75 -12.5v-32q-86 2 -130 2t-130 -2v32q61 0 75 12t14 57z"/>
            <glyph glyph-name="OE" unicode="&#x152;" horiz-adv-x="1000"
                   d="M541 0v73h-2q-20 -38 -90.5 -60.5t-122.5 -22.5q-162 0 -229.5 94t-67.5 263q-4 164 70 261t233 97q67 0 115 -13.5t84 -54.5l10 -11v64h423v-178h-53q0 5 -1 14q-8 76 -20 94q-16 25 -78 28q-11 1 -26 1h-156v-263h61q71 0 88 15t17 85h44v-238h-44q-1 71 -18 85.5
t-87 14.5h-61v-298h156q28 0 44.5 2t30.5 9t21 15.5t13 29.5t9 42.5t7 61.5h53v-210h-423zM537 279v216q0 94 -48 136.5t-149 42.5q-43 0 -76.5 -12t-55 -29.5t-37 -48t-23 -56.5t-12 -67.5t-5 -67.5t-0.5 -70q0 -298 201 -298q114 0 159.5 67.5t45.5 186.5z"/>
            <glyph glyph-name="oe" unicode="&#x153;" horiz-adv-x="833"
                   d="M134 233q0 -36 2 -62t10 -55.5t21.5 -48t38.5 -30.5t59 -12q36 0 61.5 12.5t39 30t20.5 48t8.5 55.5t1.5 62t-1.5 62t-8.5 55.5t-20.5 48t-39 30t-61.5 12.5q-34 0 -59 -12t-38.5 -30.5t-21.5 -48t-10 -55.5t-2 -62zM477 265h220q0 177 -100 177q-32 0 -54.5 -10.5
t-34.5 -26t-19 -41t-9 -46.5t-3 -53zM789 231h-311q-1 -40 2 -72.5t13.5 -68t35.5 -54t63 -13.5q63 0 86.5 26t34.5 90q2 21 35 21q11 0 17 -0.5t11.5 -6t3.5 -15.5q-6 -65 -54 -105.5t-126 -40.5q-118 -4 -164 65q-48 -67 -171 -67q-124 0 -172 64t-48 195q0 112 57 169
t168 57q114 0 168 -69q63 69 157 69q41 0 72.5 -8t52 -25t33.5 -36.5t20.5 -49.5t10.5 -57.5t5 -67.5z"/>
            <glyph glyph-name="Scaron" unicode="&#x160;" horiz-adv-x="611"
                   d="M258 430l115 -41q86 -31 132.5 -72.5t46.5 -120.5q0 -59 -22.5 -100.5t-63 -64t-86.5 -32t-102 -9.5q-120 0 -216 43v181h67q1 -14 2.5 -41t3 -40.5t6.5 -34t15 -31t27 -22t44 -16.5t64 -5q73 0 122 35t49 105q0 20 -5.5 38t-12 30.5t-22 25t-24 19.5t-32 17t-31 13
t-35 12t-32.5 11q-44 16 -69 27.5t-54 33t-42 51.5t-13 72q0 94 65.5 142.5t162.5 48.5q103 0 206 -38v-164h-56l-3 33t-3.5 33.5t-6.5 29.5t-14.5 28t-24 20.5t-38.5 15t-56 4.5q-65 0 -105 -30t-40 -93q0 -80 81 -114zM271 736l-124 169h43l116 -103l115 103h43l-124 -169
h-69z"/>
            <glyph glyph-name="scaron" unicode="&#x161;" horiz-adv-x="444"
                   d="M50 18v133h52q1 -9 2.5 -30.5t2.5 -31.5t7 -25.5t15.5 -22.5t27.5 -13t44 -6q47 0 81.5 23t34.5 68q0 21 -8.5 36t-29 26t-34.5 15.5t-45 12.5q-7 2 -11 3q-30 8 -48 15t-39 20t-31 34t-10 50q0 79 50 114.5t133 35.5q72 0 125 -25v-120h-53q-1 7 -2.5 25.5t-2 23.5
t-3 18t-6 16.5t-9.5 11t-14.5 9.5t-21 4.5t-28.5 2.5q-56 -2 -75 -22.5t-19 -66.5q0 -19 16 -37.5t43 -27.5q14 -5 43 -12.5t46 -12.5t40 -16t36 -23.5t22.5 -34t9.5 -49.5q0 -47 -19.5 -78.5t-54.5 -45.5t-70 -19.5t-80 -5.5q-67 0 -117 28zM188 521l-124 169h43l116 -103
l115 103h43l-124 -169h-69z"/>
            <glyph glyph-name="Ydieresis" unicode="&#x178;" horiz-adv-x="722"
                   d="M292 341l-95 151q-12 18 -31.5 49.5t-27.5 43t-22.5 29.5t-26 24.5t-29 13t-39.5 8.5v32q25 0 74.5 -1t73.5 -1q25 0 74 1t73 1v-32q-5 0 -17 -1t-17 -1.5t-14 -1.5t-13.5 -3t-10 -5.5t-8.5 -9t-4 -12.5q0 -6 -0.5 -8.5t2 -8t3.5 -7t4.5 -7t4.5 -6.5l151 -249l137 240
q19 28 18 46q0 34 -71 34v32q18 0 54 -1t54 -1t54 1t54 1v-32q-19 -2 -33.5 -7.5t-24.5 -11.5t-20.5 -19.5t-16 -22t-17 -28t-17.5 -29.5l-140 -222q-21 -33 -21 -66v-154q0 -47 18 -57.5t84 -10.5v-34q-26 0 -74.5 0.5t-72.5 1.5q-24 -1 -72.5 -1.5t-74.5 -0.5v34
q66 0 84 10.5t18 57.5v158q0 31 -4 44t-21 39zM275 788q-22 0 -37.5 16t-15.5 37q0 22 15.5 38t37.5 16t37.5 -16t15.5 -38q0 -21 -15.5 -37t-37.5 -16zM479 895q21 0 37 -16.5t16 -37.5t-16 -37t-37 -16t-37.5 16t-16.5 37q0 22 16 38t38 16z"/>
            <glyph glyph-name="Zcaron" unicode="&#x17d;" horiz-adv-x="667"
                   d="M606 670l-458 -628h297q26 0 42.5 2t29 9t18.5 14.5t11 26.5t7 36t5 51q1 14 2 22h63v-203h-591v20l454 629h-234q-21 0 -36 -1t-27 -4.5t-19.5 -6t-14 -10.5t-9.5 -13t-6 -18.5t-4 -21.5t-4 -28t-5 -33h-53v177h532v-20zM299 736l-124 169h43l116 -103l115 103h43
l-124 -169h-69z"/>
            <glyph glyph-name="zcaron" unicode="&#x17e;" horiz-adv-x="500"
                   d="M462 465v-30l-316 -397h200q32 0 46.5 23t18.5 85h51v-146h-425v31l311 396h-182q-14 0 -22.5 -6t-13.5 -22t-6.5 -27t-3.5 -37q-1 -7 -1 -11h-52v141h395zM216 521l-124 169h43l116 -103l115 103h43l-124 -169h-69z"/>
            <glyph glyph-name="florin" unicode="&#x192;" horiz-adv-x="556"
                   d="M292 344h110v-38h-115l-47 -340q-21 -177 -180 -177q-41 0 -68 23t-27 62q0 26 7.5 35t33.5 7q18 0 26.5 -7t10.5 -16t2 -26v-6q0 -15 8.5 -27t22.5 -13t26 7t19.5 23t13.5 31.5t10 38t6 36.5t4 33.5t3 23.5l38 292h-105v38h109q1 11 5 46t6.5 53.5t9.5 52.5t14.5 53.5
t21.5 45t30.5 39.5t41 24t54.5 10q65 0 90 -26q14 -13 20 -40t-1 -48q-4 -12 -33.5 -13.5t-33.5 8.5q-5 9 -6 32t-8.5 37t-28.5 16q-52 0 -68 -117z"/>
            <glyph glyph-name="circumflex" unicode="&#x2c6;"
                   d="M201 693l124 -169h-43l-115 103l-116 -103h-43l124 169h69z"/>
            <glyph glyph-name="caron" unicode="&#x2c7;"
                   d="M132 521l-124 169h43l116 -103l115 103h43l-124 -169h-69z"/>
            <glyph glyph-name="uni02C9" unicode="&#x2c9;"
                   d="M27 564v59h280v-59h-280z"/>
            <glyph glyph-name="breve" unicode="&#x2d8;"
                   d="M20 682h36q6 -44 34.5 -68.5t73.5 -24.5q46 0 76.5 24t33.5 69h37q-2 -68 -39 -113t-103 -45q-141 0 -149 158z"/>
            <glyph glyph-name="dotaccent" unicode="&#x2d9;"
                   d="M166 573q-22 0 -37.5 16t-15.5 37q0 22 15.5 38t37.5 16t37.5 -16t15.5 -38q0 -21 -15.5 -37t-37.5 -16z"/>
            <glyph glyph-name="ring" unicode="&#x2da;"
                   d="M267 626q0 -41 -29.5 -71t-71.5 -30t-71.5 30t-29.5 71q0 42 29.5 71.5t71.5 29.5t71.5 -29.5t29.5 -71.5zM106 626q0 -24 18 -42t42 -18t42 18t18 42q0 25 -18 42.5t-42 17.5t-42 -17.5t-18 -42.5z"/>
            <glyph glyph-name="ogonek" unicode="&#x2db;"
                   d="M239 -68l16 -21q-62 -56 -113 -56q-27 0 -45.5 18.5t-18.5 46.5q0 23 14.5 45.5t35.5 34.5h37q-40 -31 -40 -63q0 -17 12 -29t29 -12q37 0 73 36z"/>
            <glyph glyph-name="tilde" unicode="&#x2dc;"
                   d="M29 549h-33q8 46 37.5 78t74.5 32q31 0 84 -28q42 -21 58 -20q21 1 35.5 17t18.5 34h34q-27 -112 -112 -112q-28 0 -92 30q-39 17 -51 17q-19 0 -35 -12t-19 -36z"/>
            <glyph glyph-name="hungarumlaut" unicode="&#x2dd;" horiz-adv-x="405"
                   d="M55 524h-47l140 148q44 50 78 16q15 -14 8 -34.5t-31 -35.5zM216 524h-47l140 148q44 50 78 16q15 -14 8 -34.5t-31 -35.5z"/>
            <glyph glyph-name="uni03A9" unicode="&#x3a9;" horiz-adv-x="727"
                   d="M693 136l-26 -136h-236l-7 19q4 7 23.5 37.5t29.5 47t26.5 50t25.5 59t16 60t7 67.5q-1 135 -55 198t-135 63q-85 0 -136 -64t-51 -202q0 -24 4 -48.5t8 -43t14.5 -44.5t16 -39t21 -40t20 -34.5t22 -36t19.5 -30.5l-7 -19h-236l-23 136l24 1q15 -44 30 -57.5t46 -13.5
h103q-25 20 -42 34.5t-42.5 42.5t-41 54.5t-27 65t-11.5 79.5q0 130 82.5 209.5t209.5 79.5q128 0 208 -76t80 -205q0 -45 -14.5 -87t-42.5 -79t-52 -62t-59 -56h108q32 0 45 12.5t29 58.5z"/>
            <glyph glyph-name="uni03BC" unicode="&#x3bc;" horiz-adv-x="611"
                   d="M413 -2v58q-22 -29 -69 -47.5t-86 -18.5q-32 0 -72 8l16 -130q9 -46 -7.5 -66.5t-39.5 -20.5q-47 0 -47 87v497q0 45 -14 57.5t-75 12.5v30h171v-296q0 -35 2.5 -55.5t12 -41.5t31 -30.5t55.5 -9.5t57.5 9.5t36 23t19 38.5t8 45.5t1.5 54.5v162q0 44 -13.5 57t-70.5 13
v30h166v-365q0 -45 14 -57.5t75 -12.5v-32q-15 0 -45 0.5t-45 1.5q-14 0 -40.5 -1t-40.5 -1z"/>
            <glyph glyph-name="pi" unicode="&#x3c0;" horiz-adv-x="554"
                   d="M504 436l23 -9q-12 -61 -35 -87q-20 -5 -66 -5q-4 -44 -4 -208q0 -82 42 -82q22 0 48 26l12 -20q-37 -62 -102 -62q-42 0 -65 26t-23 91q0 95 10 231q-118 2 -152 2v-16q0 -93 -13.5 -169t-26.5 -107t-23 -42q-38 -15 -57 -16l-6 16q47 57 68 153t21 183q-43 0 -67.5 -10
t-57.5 -33l-13 22q35 43 56 58q43 30 108 29q33 0 124.5 -1.5t140.5 -1.5q22 0 34 6.5t24 25.5z"/>
            <glyph glyph-name="endash" unicode="&#x2013;" horiz-adv-x="556"
                   d="M556 281v-65h-556v65h556z"/>
            <glyph glyph-name="emdash" unicode="&#x2014;" horiz-adv-x="1000"
                   d="M0 281h1000v-65h-1000v65z"/>
            <glyph glyph-name="quoteleft" unicode="&#x2018;" horiz-adv-x="278"
                   d="M183 700l16 -27q-35 -14 -60 -43.5t-26 -64.5q29 5 50 -11t21 -46q0 -26 -15 -44.5t-41 -18.5q-31 0 -47 23.5t-16 55.5q0 63 29 103t89 73z"/>
            <glyph glyph-name="quoteright" unicode="&#x2019;" horiz-adv-x="278"
                   d="M90 445l-16 27q35 14 60 43.5t26 64.5q-29 -5 -50 11t-21 46q0 26 15 44.5t41 18.5q31 0 47 -23.5t16 -55.5q0 -63 -29 -103t-89 -73z"/>
            <glyph glyph-name="quotesinglbase" unicode="&#x201a;" horiz-adv-x="278"
                   d="M88 -130l-16 27q34 13 60.5 43.5t24.5 63.5q-3 0 -9.5 -0.5t-10.5 -0.5t-9.5 1t-9.5 4q-32 12 -32 52q0 30 16 46.5t41 16.5q31 -5 47 -21t16 -57q0 -61 -30 -102.5t-88 -72.5z"/>
            <glyph glyph-name="quotedblleft" unicode="&#x201c;" horiz-adv-x="500"
                   d="M183 700l16 -27q-35 -14 -60 -43.5t-26 -64.5q29 5 50 -11t21 -46q0 -26 -15 -44.5t-41 -18.5q-31 0 -47 23.5t-16 55.5q0 63 29 103t89 73zM402 700l16 -27q-2 -1 -5.5 -2t-5.5 -2q-76 -42 -75 -104q29 5 50 -11t21 -46q0 -25 -15.5 -44t-40.5 -19q-32 0 -47.5 23
t-15.5 56q0 63 29 103t89 73z"/>
            <glyph glyph-name="quotedblright" unicode="&#x201d;" horiz-adv-x="500"
                   d="M98 445l-16 27q35 14 60 43.5t26 64.5q-29 -5 -50 11t-21 46q0 26 15 44.5t41 18.5q31 0 47 -23.5t16 -55.5q0 -63 -29 -103t-89 -73zM317 445l-16 27q35 14 60 43.5t26 64.5q-29 -5 -50 11t-21 46q0 26 15 44.5t41 18.5q31 0 47 -23.5t16 -55.5q0 -63 -29 -103t-89 -73z
"/>
            <glyph glyph-name="quotedblbase" unicode="&#x201e;" horiz-adv-x="500"
                   d="M90 -130l-16 27q34 13 60.5 43.5t24.5 63.5q-3 0 -9.5 -0.5t-10.5 -0.5t-9.5 1t-9.5 4q-32 12 -32 52q0 30 16 46.5t41 16.5q31 -5 47 -21t16 -57q0 -61 -30 -102.5t-88 -72.5zM309 -130l-16 27q34 13 60.5 43.5t24.5 63.5q-3 0 -9.5 -0.5t-10.5 -0.5t-9.5 1t-9.5 4
q-32 12 -32 52q0 30 16 46.5t41 16.5q31 -5 47 -21t16 -57q0 -61 -30 -102.5t-88 -72.5z"/>
            <glyph glyph-name="dagger" unicode="&#x2020;" horiz-adv-x="556"
                   d="M275 670l46 20l11 -9q-11 -56 -19 -170v-46h46q76 0 148 23l5 -11l-21 -41l21 -40l-5 -11q-72 23 -148 23h-46v-156q0 -94 20 -243l-11 -9l-49 26l-45 -26l-11 9q20 149 20 243v156h-46q-76 0 -148 -23l-5 11l21 40l-21 41l5 11q72 -23 148 -23h46v46q-8 114 -19 170
l11 9z"/>
            <glyph glyph-name="daggerdbl" unicode="&#x2021;" horiz-adv-x="556"
                   d="M276 667l48 23l10 -9q-17 -54 -20 -108v-59h56q80 0 131 21l5 -10l-22 -38l22 -40l-5 -10q-51 21 -131 21h-56v-227h56q80 0 131 21l5 -10l-22 -38l22 -40l-5 -10q-51 21 -131 21h-56v-58q3 -54 20 -108l-10 -9l-45 23l-48 -23l-10 9q17 54 20 108v58h-56q-80 0 -131 -21
l-5 10l22 40l-22 38l5 10q51 -21 131 -21h56v227h-56q-80 0 -131 -21l-5 10l22 40l-22 38l5 10q51 -21 131 -21h56v59q-3 54 -20 108l10 9z"/>
            <glyph glyph-name="bullet" unicode="&#x2022;" horiz-adv-x="606"
                   d="M131 345q0 71 50.5 121.5t121.5 50.5t121.5 -50.5t50.5 -121.5t-50.5 -121.5t-121.5 -50.5t-121.5 50.5t-50.5 121.5z"/>
            <glyph glyph-name="ellipsis" unicode="&#x2026;" horiz-adv-x="1000"
                   d="M167 -10q-26 0 -41 18.5t-15 47.5t15 47.5t41 18.5t41 -18.5t15 -47.5t-15 -47.5t-41 -18.5zM501 -10q-26 0 -41 18.5t-15 47.5t15 47.5t41 18.5t41 -18.5t15 -47.5t-15 -47.5t-41 -18.5zM835 -10q-26 0 -41 18.5t-15 47.5t15 47.5t41 18.5t41 -18.5t15 -47.5t-15 -47.5
t-41 -18.5z"/>
            <glyph glyph-name="perthousand" unicode="&#x2030;" horiz-adv-x="1000"
                   d="M378 149q0 66 39.5 111.5t104.5 45.5t101 -45t36 -112q0 -68 -38 -113.5t-105 -45.5q-69 0 -103.5 43.5t-34.5 115.5zM522 283q-26 0 -42.5 -15t-23 -42t-8 -46.5t-1.5 -46.5q0 -124 69 -124q74 0 74 139q0 135 -68 135zM701 149q0 66 39.5 111.5t104.5 45.5
q66 0 101 -45t35 -112q0 -68 -37.5 -113.5t-104.5 -45.5q-70 0 -104 43.5t-34 115.5zM845 283q-26 0 -42.5 -15t-23 -42t-8 -46.5t-1.5 -46.5q0 -124 69 -124q74 0 74 139q0 135 -68 135zM51 514q0 66 39.5 111.5t104.5 45.5q66 0 101 -45t35 -112q0 -68 -37.5 -113.5
t-104.5 -45.5q-70 0 -104 43.5t-34 115.5zM194 647q-26 0 -42.5 -15t-23 -42t-8 -46.5t-1.5 -46.5q0 -124 69 -124q74 0 74 139q0 135 -68 135zM134 -32l387 722h48l-387 -722h-48z"/>
            <glyph glyph-name="guilsinglleft" unicode="&#x2039;" horiz-adv-x="278"
                   d="M231 444l-122 -196l122 -194v-6h-39l-153 187v27l153 188h39v-6z"/>
            <glyph glyph-name="guilsinglright" unicode="&#x203a;" horiz-adv-x="278"
                   d="M37 52l123 196l-123 194v6h39l153 -186v-28l-153 -188h-39v6z"/>
            <glyph glyph-name="fraction" unicode="&#x2044;" horiz-adv-x="167"
                   d="M-84 0h-51l388 635h50z"/>
            <glyph glyph-name="Euro" unicode="&#x20ac;" horiz-adv-x="556"
                   d="M516 97q0 -51 -51 -79t-135 -28q-67 0 -113 20.5t-69.5 60t-33 83t-12.5 103.5h-73l10 38h62v82h-72l10 38h64q5 56 17 98t37.5 79t72 56.5t111.5 19.5q71 0 170 -37v-140h-52q-8 72 -35.5 108.5t-90.5 36.5q-125 0 -134 -221h239l-11 -38h-228v-82h204l-12 -38h-192
q1 -46 6.5 -81.5t19 -73t41 -58.5t67.5 -21q37 0 61 9t33 24.5t11.5 26.5t2.5 24q0 6 7.5 12.5t16.5 6.5h26q25 0 25 -29z"/>
            <glyph glyph-name="afii61289" unicode="&#x2113;" horiz-adv-x="402"
                   d="M366 116l18 -17q-60 -107 -164 -107q-66 0 -98 35q-35 41 -35 135v67l-59 -41l-12 23l71 53v117q0 111 10 160t41 83q37 45 88 45q43 0 66 -35.5t23 -86.5q0 -75 -37 -138t-108 -130v-77q0 -87 22 -122t66 -35q59 0 108 71zM170 436v-114q92 106 92 222q0 41 -11.5 68
t-33.5 27q-27 0 -37 -45t-10 -158z"/>
            <glyph glyph-name="trademark" unicode="&#x2122;" horiz-adv-x="979"
                   d="M243 662v-308q0 -31 8 -37.5t55 -7.5v-23h-190v23q46 1 54.5 7t8.5 38v308h-45q-42 0 -57.5 -15t-15.5 -56h-26v99h352v-99h-26q0 41 -15.5 56t-57.5 15h-45zM832 357v287h-2l-147 -358h-9l-149 358h-2v-287q0 -31 8 -38.5t41 -9.5v-23h-127v23q33 2 41 9.5t8 38.5v276
v8.5v7.5v5.5t-1 5t-2 3.5t-3 3t-4.5 2t-6.5 1h-9h-15v21h120l124 -293l125 293h123v-21h-21q-14 0 -20.5 -5t-7 -10t-0.5 -21v-276q0 -31 8 -38.5t41 -9.5v-23h-162v23q33 2 41 9.5t8 38.5z"/>
            <glyph glyph-name="Omega" unicode="&#x2126;" horiz-adv-x="727"
                   d="M693 136l-26 -136h-236l-7 19q4 7 23.5 37.5t29.5 47t26.5 50t25.5 59t16 60t7 67.5q-1 135 -55 198t-135 63q-85 0 -136 -64t-51 -202q0 -24 4 -48.5t8 -43t14.5 -44.5t16 -39t21 -40t20 -34.5t22 -36t19.5 -30.5l-7 -19h-236l-23 136l24 1q15 -44 30 -57.5t46 -13.5
h103q-25 20 -42 34.5t-42.5 42.5t-41 54.5t-27 65t-11.5 79.5q0 130 82.5 209.5t209.5 79.5q128 0 208 -76t80 -205q0 -45 -14.5 -87t-42.5 -79t-52 -62t-59 -56h108q32 0 45 12.5t29 58.5z"/>
            <glyph glyph-name="estimated" unicode="&#x212e;" horiz-adv-x="776"
                   d="M745 303h-579q-5 0 -5 -4v-175q0 -10 8 -20q92 -95 219 -95q140 0 231 106h51q-49 -57 -123.5 -90.5t-159.5 -33.5q-148 0 -252.5 94t-104.5 227t104.5 227.5t252.5 94.5t253 -94t105 -228v-9zM614 326v176q0 12 -9 21q-93 91 -217 91q-126 0 -218 -94q-9 -9 -9 -22v-172
q0 -6 5 -6h444q4 0 4 6z"/>
            <glyph glyph-name="partialdiff" unicode="&#x2202;" horiz-adv-x="521"
                   d="M256 397q37 0 74 -17.5t60 -49.5q7 70 7 96q2 82 -26 144q-15 34 -49 59.5t-74 25.5q-66 0 -137 -57q-13 -2 -26 21.5t-6 40.5q66 39 140 39q130 0 204 -129q49 -88 49 -210q0 -136 -48 -229q-69 -139 -201 -139q-82 0 -131.5 50.5t-49.5 135.5q0 90 57 151q61 68 157 68
zM279 358h-1q-65 0 -105 -52q-43 -62 -43 -166q0 -52 25 -85t68 -33q67 0 111 93q31 63 48 176q-11 23 -40 45t-63 22z"/>
            <glyph glyph-name="Delta" unicode="&#x2206;" horiz-adv-x="624"
                   d="M589 0h-555v24l253 595l41 11l261 -606v-24zM479 45l-198 471l-193 -471h391z"/>
            <glyph glyph-name="product" unicode="&#x220f;" horiz-adv-x="674"
                   d="M646 626v-25q-62 -4 -75 -14.5t-13 -50.5v-513q0 -46 13.5 -58t72.5 -16v-26h-256v26q58 4 70 14.5t12 59.5v540q0 20 -6 25.5t-28 5.5h-201q-21 0 -26.5 -4.5t-5.5 -22.5v-544q0 -47 10 -58.5t64 -15.5v-26h-248v26q59 5 72 16.5t13 57.5v513q0 41 -13.5 51t-74.5 14v25
h620z"/>
            <glyph glyph-name="summation" unicode="&#x2211;" horiz-adv-x="543"
                   d="M520 100l-43 -180h-451v24l216 309l-210 349v24h445q1 -23 12 -154l-26 -5q-13 63 -34 99q-10 17 -29 23t-71 6h-187l177 -288l-215 -314h253q65 0 85.5 16.5t51.5 97.5z"/>
            <glyph glyph-name="minus" unicode="&#x2212;" horiz-adv-x="606"
                   d="M555 221h-504v64h504v-64z"/>
            <glyph glyph-name="uni2215" unicode="&#x2215;" horiz-adv-x="167"
                   d="M-84 0h-51l388 635h50z"/>
            <glyph glyph-name="uni2219" unicode="&#x2219;" horiz-adv-x="278"
                   d="M139 191q-25 0 -44 18.5t-19 44.5q0 25 19 43.5t44 18.5t43.5 -18.5t18.5 -43.5t-18.5 -44t-43.5 -19z"/>
            <glyph glyph-name="radical" unicode="&#x221a;" horiz-adv-x="531"
                   d="M516 799l-160 -931l-21 -11l-211 498l-83 -41l-11 31l152 73l163 -398h2l131 788z"/>
            <glyph glyph-name="infinity" unicode="&#x221e;" horiz-adv-x="716"
                   d="M670 258v-1q0 -68 -43 -110t-101 -42q-41 0 -80.5 25t-87.5 82q-45 -52 -83 -79.5t-89 -27.5q-57 0 -99 42.5t-42 105.5q0 66 42.5 108.5t105.5 42.5q82 0 169 -107q53 58 77 76q44 31 93 31q61 -1 99.5 -41t38.5 -105zM193 157h1q9 0 18 1.5t18 6t15.5 8t16 11
t14.5 11.5t14.5 14t13 13.5t13.5 15t12 13.5q-22 28 -31 38.5t-28.5 29.5t-39 26.5t-41.5 7.5q-40 0 -64.5 -29t-24.5 -72q0 -40 26 -67.5t67 -27.5zM526 353h-1q-17 0 -33 -6t-32 -19.5t-25.5 -22.5t-26 -27t-19.5 -22q47 -55 76 -77t63 -22q40 0 63.5 29.5t23.5 66.5
q0 45 -25 72.5t-64 27.5z"/>
            <glyph glyph-name="integral" unicode="&#x222b;" horiz-adv-x="359"
                   d="M153 11l-18 368q-20 385 146 385q21 0 39.5 -11.5t18.5 -32.5q0 -20 -12 -31t-30 -11q-17 0 -29 23t-21 23q-44 0 -37 -153l17 -348q20 -407 -148 -407q-25 0 -42 13.5t-17 32.5q-1 18 14.5 31.5t35.5 13.5q14 0 25.5 -25t20.5 -25q21 0 31 42t6 112z"/>
            <glyph glyph-name="approxequal" unicode="&#x2248;" horiz-adv-x="526"
                   d="M450 396l36 -33q-52 -89 -125 -89q-27 0 -49 8.5t-60 29.5q-51 30 -85 30q-48 0 -93 -66l-36 32q21 40 57.5 64.5t77.5 24.5q9 0 18 -1t18 -4t14.5 -4.5t15.5 -6.5l12 -6t13 -7l11 -7q2 -1 10.5 -6t10.5 -6l9 -4.5t9.5 -4.5t8.5 -3.5t9.5 -3.5t8.5 -2t10 -1.5t10 -0.5
q47 0 89 67zM450 233l36 -33q-52 -88 -126 -88q-40 0 -108 37q-54 31 -84 31t-50.5 -17.5t-43.5 -50.5l-36 33q21 40 57.5 64.5t77.5 24.5q11 0 22 -2t18.5 -4t18 -6.5t15 -7t15.5 -8.5t13 -7q4 -2 16 -9t17.5 -9.5t15.5 -7t18.5 -6t18.5 -1.5q26 0 46 16t43 51z"/>
            <glyph glyph-name="notequal" unicode="&#x2260;" horiz-adv-x="526"
                   d="M379 458l-39 -86h139v-55h-162l-60 -129h222v-55h-245l-49 -108l-45 19l41 89h-135v55h158l59 129h-217v55h240l49 106z"/>
            <glyph glyph-name="lessequal" unicode="&#x2264;" horiz-adv-x="526"
                   d="M477 89l-426 204v59l426 203v-64l-367 -167v-2l367 -169v-64zM480 -2h-433v55h433v-55z"/>
            <glyph glyph-name="greaterequal" unicode="&#x2265;" horiz-adv-x="526"
                   d="M52 555l426 -204v-58l-426 -204v64l366 168v2l-366 168v64zM478 -2h-431v55h431v-55z"/>
            <glyph glyph-name="lozenge" unicode="&#x25ca;" horiz-adv-x="542"
                   d="M497 300l-194 -367h-65l-193 367l195 369h63zM433 300l-160 309h-3l-161 -308l161 -311h3z"/>
            </font>
</defs>
</svg>
